<?xml version="1.0" standalone="no"?>
<!DOCTYPE svg PUBLIC "-//W3C//DTD SVG 20010904//EN"
 "http://www.w3.org/TR/2001/REC-SVG-20010904/DTD/svg10.dtd">
<svg version="1.0" xmlns="http://www.w3.org/2000/svg"
 width="1024.000000pt" height="1024.000000pt" viewBox="0 0 1024.000000 1024.000000"
 preserveAspectRatio="xMidYMid meet">
<metadata>
Created by potrace 1.14, written by Peter Selinger 2001-2017
</metadata>
<g transform="translate(0.000000,1024.000000) scale(0.100000,-0.100000)"
fill="#000000" stroke="none">
<path d="M3340 9807 c0 -9 17 -14 53 -16 90 -5 97 -6 97 -12 0 -11 29 -19 45
-13 25 10 17 24 -15 24 -16 0 -30 4 -30 10 0 5 -7 7 -15 4 -8 -3 -30 -1 -50 6
-28 9 -39 9 -50 0 -11 -9 -15 -9 -15 -1 0 6 -4 11 -10 11 -5 0 -10 -6 -10 -13z"/>
<path d="M3270 9794 c0 -11 8 -14 27 -12 39 4 42 28 4 28 -21 0 -31 -5 -31
-16z"/>
<path d="M3180 9773 c-19 -8 -40 -24 -48 -34 -7 -11 -17 -17 -21 -14 -5 2 -13
-7 -19 -21 -11 -23 -3 -56 19 -74 3 -3 9 -18 13 -34 4 -16 15 -30 27 -33 16
-4 19 -11 15 -29 -4 -13 -3 -24 1 -24 5 0 14 -15 21 -32 58 -143 68 -172 77
-233 3 -22 11 -58 17 -80 6 -22 12 -58 14 -80 2 -22 6 -56 10 -75 14 -77 3
-152 -31 -217 -29 -53 -28 -53 -70 -34 -74 33 -94 41 -162 61 -40 12 -77 19
-82 15 -5 -3 -12 -1 -16 5 -3 5 -21 10 -38 10 -40 0 -77 10 -77 20 0 7 58 24
73 21 5 -1 6 3 2 9 -9 14 -42 13 -48 -2 -3 -9 -7 -8 -12 4 -4 9 7 48 24 93 17
42 29 81 25 86 -3 5 -1 9 5 9 14 0 61 52 61 67 0 20 -18 25 -45 10 -15 -7 -68
-62 -119 -123 l-92 -109 -103 3 c-77 2 -106 0 -113 -10 -7 -9 -8 -8 -4 6 5 16
3 17 -21 11 -29 -7 -113 -18 -246 -30 -43 -5 -80 -12 -83 -16 -3 -5 -22 -9
-42 -9 -21 0 -55 -9 -76 -20 -22 -10 -42 -17 -46 -15 -4 3 -13 -2 -20 -10 -7
-8 -18 -15 -26 -15 -18 0 -44 -40 -44 -68 0 -19 3 -21 19 -12 26 14 28 13 34
-10 3 -11 1 -20 -4 -20 -5 0 -9 7 -9 15 0 13 -2 13 -14 3 -12 -11 -4 -23 49
-73 34 -33 85 -80 113 -104 29 -25 50 -46 49 -48 -2 -1 -12 -4 -23 -6 -31 -4
-46 -17 -36 -30 5 -7 12 -22 14 -34 5 -17 2 -20 -11 -15 -13 5 -14 3 -5 -9 7
-8 8 -22 3 -34 -6 -17 -8 -17 -8 -3 -2 36 -59 85 -123 106 -35 11 -70 20 -78
21 -8 0 -51 7 -95 14 -131 21 -369 10 -450 -22 -72 -28 -225 -111 -256 -138
-20 -18 -39 -30 -42 -27 -7 7 -257 -245 -257 -259 0 -5 -9 -22 -21 -38 -11
-16 -17 -33 -14 -39 3 -5 0 -10 -7 -10 -19 -1 -74 -98 -86 -152 -20 -99 51
-116 198 -46 135 64 170 78 230 92 32 8 63 17 69 21 36 21 258 31 324 14 38
-10 51 -29 19 -29 -22 0 -178 -75 -187 -91 -4 -6 -31 -22 -59 -34 -28 -13 -71
-42 -96 -66 -25 -23 -51 -42 -58 -40 -6 1 -12 -7 -12 -19 0 -13 -7 -20 -18
-20 -21 0 -68 -37 -64 -51 1 -5 -3 -9 -9 -9 -17 0 -189 -181 -182 -193 4 -6 0
-8 -9 -4 -10 3 -20 -4 -28 -21 -7 -15 -16 -34 -21 -42 -22 -38 -38 -83 -33
-91 3 -5 0 -9 -5 -9 -6 0 -11 -11 -11 -25 0 -14 -6 -40 -14 -58 -13 -32 -15
-135 -2 -155 3 -6 2 -14 -4 -17 -8 -5 -8 -11 0 -20 7 -8 9 -23 6 -33 -5 -14
-1 -21 14 -25 20 -5 28 -27 10 -27 -5 0 -10 -7 -10 -15 0 -8 3 -15 8 -15 8 0
33 -65 35 -93 1 -15 7 -17 32 -12 71 15 75 15 75 2 0 -7 -7 -23 -16 -36 -14
-19 -14 -25 -3 -32 11 -7 10 -9 -3 -9 -22 0 -24 -18 -3 -26 23 -9 18 -24 -7
-21 -16 1 -23 -4 -25 -18 -2 -11 -8 -47 -14 -80 -15 -82 -17 -161 -7 -215 5
-25 10 -50 12 -57 1 -7 5 -16 9 -19 4 -4 7 -15 7 -24 0 -9 17 -35 38 -57 43
-48 109 -71 190 -69 28 1 52 1 52 -1 0 -2 -5 -13 -12 -26 -26 -51 -27 -56 -15
-60 7 -3 4 -6 -5 -6 -10 -1 -18 -8 -18 -16 0 -8 -4 -15 -10 -15 -10 0 -32 -69
-25 -81 3 -4 -2 -10 -11 -13 -8 -3 -14 -11 -12 -18 1 -7 -6 -26 -16 -41 -10
-15 -17 -29 -15 -30 2 -2 17 -8 32 -15 15 -7 26 -16 22 -21 -5 -10 -37 -7 -55
4 -6 4 -11 -8 -11 -27 -3 -59 3 -113 12 -116 5 -2 7 -7 4 -12 -11 -17 19 -71
47 -86 45 -23 115 3 162 61 20 24 36 47 36 52 1 4 14 24 30 43 17 19 30 40 30
47 0 12 54 73 64 73 2 0 -1 -24 -6 -52 -5 -29 -10 -62 -12 -73 -4 -26 -15 -74
-23 -105 -9 -29 -13 -391 -5 -404 2 -5 6 -23 8 -40 7 -92 16 -137 29 -162 8
-16 15 -37 15 -46 0 -9 5 -20 10 -23 6 -3 10 -13 10 -21 0 -17 35 -54 52 -54
10 0 10 -2 0 -9 -11 -7 -11 -12 -2 -27 10 -16 7 -28 -20 -71 -30 -48 -44 -89
-57 -158 -3 -16 -9 -34 -13 -40 -4 -5 -11 -37 -15 -70 -4 -33 -9 -80 -13 -105
-9 -74 -7 -180 6 -258 7 -40 14 -94 17 -120 3 -26 8 -65 11 -86 2 -22 11 -62
20 -90 8 -28 18 -71 21 -96 3 -25 9 -49 13 -55 4 -5 13 -26 18 -45 39 -128 93
-239 176 -361 38 -55 56 -93 66 -137 9 -43 17 -62 28 -62 8 0 13 -3 9 -6 -9
-9 26 -44 44 -44 8 0 22 -11 29 -25 7 -14 19 -25 26 -25 7 0 22 -26 34 -57 12
-32 26 -63 32 -70 6 -7 7 -13 2 -13 -5 0 -4 -4 1 -8 6 -4 19 -26 29 -49 11
-24 22 -43 25 -43 3 0 13 -15 20 -33 8 -17 23 -39 33 -48 10 -9 18 -21 18 -27
0 -16 107 -122 123 -122 7 0 18 -14 26 -31 22 -50 461 -481 558 -548 21 -14
40 -30 42 -35 2 -4 13 -16 24 -25 11 -9 27 -23 36 -31 9 -8 48 -40 86 -70 38
-30 77 -62 86 -70 27 -25 63 -54 80 -65 18 -11 114 -87 193 -152 35 -29 53
-38 58 -30 6 9 8 9 8 0 0 -18 42 -54 60 -52 32 3 42 -3 106 -63 36 -35 76 -69
88 -77 11 -8 25 -21 29 -28 4 -7 19 -13 32 -13 13 0 48 -14 77 -31 70 -42 161
-71 195 -63 19 4 24 3 14 -4 -9 -7 18 -13 85 -20 167 -19 213 -21 220 -11 3 5
11 6 17 2 21 -13 151 -13 162 0 7 8 47 12 122 13 76 0 117 5 127 13 12 10 19
11 29 2 8 -6 16 -9 18 -6 12 11 89 14 89 3 0 -10 84 -115 103 -129 5 -3 8 -9
7 -13 -2 -7 77 -137 99 -162 18 -21 17 -56 -2 -68 -15 -9 -22 -7 -37 12 -15
18 -23 21 -37 13 -18 -9 -149 -44 -232 -62 -132 -27 -400 -122 -421 -149 -3
-4 -32 -20 -65 -36 -136 -68 -252 -175 -269 -249 -4 -15 -26 -65 -47 -106 -11
-20 -19 -42 -19 -48 0 -7 40 -11 128 -11 l127 1 38 34 c20 20 37 40 37 45 0 6
6 10 14 10 8 0 24 9 37 21 13 11 18 18 12 14 -7 -3 -13 -1 -13 4 0 6 7 11 15
11 20 0 56 23 119 74 40 33 51 38 65 28 9 -7 33 -21 53 -32 38 -20 88 -65 88
-78 -1 -6 -66 -59 -145 -117 -18 -13 40 -14 502 -15 l521 0 -5 43 c-3 23 -19
82 -36 132 -16 50 -31 99 -32 110 -1 12 -8 19 -18 17 -11 -2 -19 7 -23 23 -4
15 -18 38 -31 51 -13 13 -31 40 -38 58 -8 19 -19 37 -25 41 -27 16 -3 25 68
25 43 0 82 3 86 7 4 5 33 9 64 10 31 1 75 6 97 12 22 5 67 14 100 21 83 16
245 69 245 80 0 5 7 7 16 3 8 -3 25 -1 37 5 12 6 59 22 104 37 46 15 85 31 88
36 4 5 15 9 26 9 10 0 19 5 19 10 0 6 9 10 19 10 11 0 22 4 26 9 3 5 19 12 35
16 17 4 30 11 30 16 0 6 4 8 9 4 5 -3 12 -1 16 5 3 5 17 10 30 10 13 0 27 5
30 10 7 12 79 46 118 55 15 4 27 10 27 14 0 4 10 13 23 19 40 20 137 62 143
62 7 0 33 11 242 106 31 14 122 58 202 98 80 39 148 72 152 74 3 2 9 -28 13
-65 4 -37 10 -72 13 -78 3 -5 6 -27 7 -50 1 -22 7 -63 13 -90 6 -28 16 -75 22
-105 6 -30 14 -68 17 -83 3 -16 12 -31 20 -34 9 -4 11 -8 4 -12 -6 -4 0 -20
17 -41 14 -18 27 -40 28 -48 5 -30 21 -32 21 -2 0 16 -4 30 -9 30 -4 0 -7 10
-5 23 1 14 -3 21 -11 19 -8 -1 -11 2 -7 9 4 6 0 29 -8 52 -8 23 -18 65 -22 92
-4 28 -10 55 -15 60 -4 6 -11 39 -15 75 -8 73 -13 105 -15 105 -2 0 -7 52 -10
107 -2 26 -7 45 -12 42 -4 -3 -8 -1 -8 5 0 9 31 31 43 31 3 0 7 -33 11 -72 3
-40 8 -89 11 -108 3 -19 6 -48 6 -64 0 -17 7 -55 16 -85 9 -31 16 -71 16 -88
0 -18 5 -33 10 -33 5 0 6 -7 3 -17 -6 -14 4 -59 22 -103 3 -8 7 -19 7 -25 1
-5 4 -17 8 -25 3 -8 11 -36 18 -62 7 -27 17 -48 21 -48 4 0 8 -14 8 -30 0 -34
16 -66 45 -91 11 -10 21 -28 22 -41 3 -41 16 -82 30 -96 7 -8 11 -18 8 -22 -3
-5 -1 -17 4 -27 5 -10 17 -38 27 -63 9 -25 26 -53 37 -63 11 -10 21 -26 22
-35 0 -9 8 -32 15 -49 l15 -33 1032 0 c729 0 1033 3 1033 11 0 6 -25 38 -55
72 -43 49 -69 68 -122 91 -74 31 -166 81 -186 99 -13 13 -80 64 -113 87 -139
96 -169 116 -180 123 -8 4 -22 12 -31 17 -10 6 -34 18 -53 26 -19 9 -53 29
-77 45 -23 16 -70 41 -105 55 -35 14 -70 30 -78 35 -38 22 -121 58 -161 70
-24 7 -51 18 -59 24 -8 7 -44 22 -79 34 -35 12 -81 31 -102 41 -21 11 -46 20
-56 20 -9 0 -35 6 -58 14 -22 7 -67 22 -100 32 -33 10 -65 21 -71 26 -7 5 -16
8 -20 6 -5 -1 -34 6 -65 15 -30 9 -75 19 -100 21 -24 3 -69 12 -99 21 -30 8
-75 15 -100 15 -25 0 -50 4 -56 8 -16 10 -60 173 -74 274 -9 68 -29 116 -50
122 -12 3 -12 4 2 5 19 1 18 41 -2 131 -6 25 -12 59 -14 75 -3 17 -7 37 -10
45 -3 8 -8 44 -10 79 -2 38 -9 67 -18 72 -11 8 -11 10 1 18 10 6 12 21 7 55
-4 25 -12 46 -17 46 -5 0 -6 12 -3 27 4 15 7 32 6 38 0 5 -3 57 -6 115 -5 102
-4 105 22 139 15 19 32 43 37 53 6 10 28 36 50 59 31 33 40 50 42 83 4 66 7
79 25 98 17 17 19 17 52 -3 20 -11 41 -17 47 -13 7 4 9 3 6 -3 -6 -9 37 -34
68 -39 6 -1 28 -9 50 -17 23 -8 54 -13 70 -11 16 1 34 -1 40 -5 11 -9 21 -11
90 -16 179 -12 328 -5 443 21 35 8 78 16 97 18 30 4 144 48 170 67 6 4 24 10
42 13 17 4 37 13 43 21 6 8 24 17 40 20 16 4 46 20 66 36 20 16 44 29 52 29 9
0 32 11 51 23 31 21 103 68 175 117 39 26 126 113 132 132 3 10 11 18 17 18
15 1 44 40 49 65 1 10 14 30 27 44 13 14 30 42 38 61 8 19 35 78 61 129 26 55
46 110 47 131 0 19 5 41 9 48 12 19 20 177 11 199 -5 10 -9 23 -9 28 -9 68
-78 216 -132 282 -19 24 -46 46 -59 49 -16 4 -22 11 -18 21 3 8 -6 27 -22 43
l-28 29 32 18 c17 10 29 24 26 31 -2 6 2 12 10 12 8 0 15 7 15 15 0 8 5 15 10
15 6 0 10 4 10 9 0 5 16 25 35 44 l35 35 -5 -51 c-3 -28 -9 -65 -14 -81 -16
-51 -31 -113 -31 -125 0 -29 54 13 70 54 22 57 22 65 1 65 -21 0 -35 13 -24
23 3 4 14 2 24 -4 24 -12 28 -3 31 71 3 48 1 55 -16 55 -11 0 -21 6 -24 14 -4
11 2 12 23 7 l28 -7 -7 57 c-4 31 -2 61 3 68 15 18 50 127 55 173 3 23 10 52
16 63 6 12 9 24 6 27 -3 4 -1 12 6 20 14 17 14 228 0 246 -5 7 -8 24 -6 40 1
15 -2 27 -7 27 -6 0 -8 4 -5 8 8 13 -13 82 -25 82 -6 0 -7 5 -4 11 8 11 -45
152 -77 206 -11 18 -26 33 -34 33 -8 0 -14 6 -12 13 4 17 -22 77 -33 77 -5 0
-7 11 -3 25 5 21 3 25 -17 25 -20 1 -21 2 -8 10 15 9 15 14 2 51 -16 49 -15
145 3 173 7 10 10 25 7 32 -3 8 0 14 6 14 6 0 11 9 11 20 0 12 6 33 13 48 8
15 22 63 32 107 10 44 22 85 27 92 5 6 10 30 11 52 1 23 4 41 7 41 4 0 7 6 7
13 4 48 24 168 33 193 12 29 15 228 4 246 -3 5 -12 46 -19 91 -20 120 -34 179
-50 209 -8 14 -15 35 -15 45 0 22 -25 101 -46 150 -8 17 -14 36 -14 42 0 6 -4
19 -10 29 -5 9 -14 28 -20 42 -5 14 -14 32 -19 40 -9 15 -24 50 -51 118 -7 17
-17 32 -22 32 -5 0 -7 4 -3 9 3 5 -8 36 -25 67 -16 32 -30 62 -30 66 0 5 -12
26 -26 48 -15 22 -24 43 -21 46 6 7 -66 119 -80 126 -5 1 -21 30 -38 63 -42
85 -68 125 -80 121 -5 -2 -11 8 -12 22 0 15 -6 28 -12 30 -6 2 -11 8 -11 14 0
5 -29 51 -65 103 -36 51 -65 97 -65 101 -3 58 -200 116 -200 59 0 -8 -6 -15
-13 -15 -12 0 -44 -58 -39 -72 1 -5 -3 -8 -8 -8 -6 0 -10 -7 -10 -16 0 -18
-20 -14 -31 7 -4 8 -16 35 -27 60 -11 25 -27 51 -36 58 -9 8 -16 19 -16 25 0
15 -72 86 -87 86 -6 0 -14 7 -17 16 -4 11 -14 15 -31 12 -14 -3 -25 -1 -25 4
0 5 -10 8 -22 6 -19 -2 -23 -9 -21 -37 1 -18 5 -36 10 -40 5 -3 10 -19 11 -36
2 -50 25 -175 32 -175 3 0 4 -16 2 -35 -3 -26 0 -36 13 -41 10 -4 13 -9 6 -13
-6 -4 -13 -43 -16 -86 -6 -100 -15 -155 -23 -155 -23 1 -100 116 -108 160 -5
30 -8 42 -19 70 -1 3 -6 19 -10 37 -4 17 -15 40 -24 50 -10 10 -16 24 -13 31
2 6 -6 32 -17 57 -12 25 -30 65 -42 90 -11 25 -25 45 -31 45 -5 0 -7 8 -4 17
6 15 4 15 -14 -2 -13 -11 -17 -22 -11 -29 5 -6 28 -58 51 -116 23 -58 46 -113
51 -122 5 -10 9 -24 9 -32 0 -8 7 -16 15 -20 19 -7 20 -26 1 -26 -8 0 -29 19
-48 42 -18 24 -46 56 -62 71 -16 16 -45 50 -64 75 -20 26 -48 58 -64 72 -15
13 -28 30 -28 37 0 7 -4 13 -9 13 -11 0 -151 141 -151 154 0 4 -91 96 -96 96
-2 0 -43 40 -91 89 -48 49 -91 90 -95 90 -5 1 -9 4 -10 9 -1 4 -13 16 -27 27
-14 10 -52 42 -83 70 -32 28 -70 58 -85 65 -15 8 -48 31 -73 50 -25 20 -62 47
-83 59 -37 23 -39 23 -52 5 -8 -11 -15 -14 -15 -7 0 6 5 15 10 18 16 10 -5 32
-37 40 -15 3 -38 15 -52 26 -17 14 -33 18 -51 14 -17 -4 -20 -3 -11 3 7 5 9
12 4 15 -24 15 -104 37 -113 32 -6 -3 -10 -2 -10 4 0 5 -39 22 -86 37 -65 20
-88 24 -94 15 -5 -10 -10 -9 -21 1 -8 8 -40 16 -74 17 -59 3 -205 4 -215 1 -3
-1 -32 -1 -65 0 -35 0 -103 -10 -162 -25 -56 -14 -110 -25 -120 -25 -11 0 -36
-9 -58 -20 -22 -11 -46 -20 -55 -20 -14 0 -83 -22 -120 -37 -8 -3 -17 -7 -20
-7 -16 -4 -128 -62 -142 -74 -10 -8 -18 -12 -18 -8 0 8 -16 -6 -65 -55 l-31
-30 -84 32 c-47 17 -110 44 -140 59 -146 74 -197 103 -232 130 -20 17 -41 30
-46 30 -5 0 -22 12 -38 26 -49 43 -82 65 -87 57 -13 -23 4 -78 36 -116 64 -77
137 -144 183 -167 16 -8 31 -18 34 -21 3 -4 34 -25 69 -48 46 -29 72 -55 91
-89 33 -56 144 -179 194 -213 38 -26 56 -52 29 -42 -11 4 -14 2 -9 -5 9 -14
-64 -19 -214 -12 -110 5 -119 7 -174 40 -69 41 -147 130 -193 222 -38 74 -56
144 -43 169 5 9 7 18 5 21 -3 2 0 20 5 38 6 22 6 36 0 40 -5 3 -11 19 -14 36
-2 16 -8 41 -14 56 -9 22 -13 69 -13 171 0 9 -5 17 -10 17 -6 0 -7 5 -3 11 9
15 -26 89 -43 89 -11 0 -18 -30 -14 -65 0 -6 -8 -16 -19 -22 -26 -17 -55 10
-45 41 4 12 9 32 10 46 1 14 7 37 13 51 6 14 13 46 17 71 l7 45 -49 25 c-46
23 -55 24 -144 16 -130 -11 -345 -71 -426 -120 -21 -13 -56 -32 -77 -43 -22
-11 -75 -50 -118 -88 -66 -57 -79 -65 -85 -50 -4 10 -34 43 -67 73 -33 30 -73
67 -89 83 -16 15 -30 27 -33 27 -2 0 -25 15 -51 33 -93 63 -159 97 -261 133
-70 24 -86 34 -55 34 11 0 25 6 31 13 16 18 -14 18 -58 0z m1110 -306 c32 -26
61 -94 61 -147 1 -21 28 -139 41 -175 40 -113 80 -168 143 -199 23 -11 37 -30
54 -73 13 -32 30 -65 36 -73 7 -8 16 -25 20 -38 19 -65 226 -322 258 -322 10
0 107 -77 119 -95 4 -5 8 -6 8 -1 0 5 10 1 23 -10 35 -31 79 -51 124 -59 50
-8 67 -25 26 -25 -35 -1 -14 -14 35 -24 30 -5 33 -4 27 14 -4 12 -2 20 5 20 7
0 14 -10 17 -21 6 -21 10 -21 94 -16 84 5 252 40 349 72 25 8 57 15 73 15 26
0 150 40 231 75 47 20 112 61 147 92 25 23 65 32 262 63 36 5 123 5 225 -2 92
-6 182 -11 199 -11 18 0 30 -3 27 -6 -3 -3 14 -11 38 -17 24 -6 51 -15 61 -19
35 -15 15 13 -42 59 -33 25 -69 46 -80 46 -16 0 -21 6 -21 24 0 29 14 35 58
25 35 -8 105 -62 217 -169 39 -37 93 -80 120 -95 131 -74 294 -220 403 -360
26 -33 57 -68 69 -78 23 -19 55 -70 59 -95 1 -7 12 -21 23 -31 12 -10 21 -23
21 -29 0 -5 20 -39 45 -75 24 -35 41 -68 38 -71 -12 -12 -12 -39 0 -56 13 -19
11 -130 -3 -130 -4 0 -11 20 -14 44 -4 24 -14 50 -21 56 -8 7 -15 21 -15 31 0
11 -5 19 -11 19 -5 0 -8 4 -5 9 10 15 -27 72 -43 66 -11 -4 -11 -2 -2 9 9 11
8 14 -6 12 -11 0 -17 5 -17 17 1 9 -4 17 -12 17 -17 0 -18 17 -1 23 7 3 -1 18
-25 42 -21 21 -34 43 -31 51 3 8 -1 14 -8 14 -18 1 -44 37 -53 73 -4 19 -16
32 -36 38 -16 6 -32 20 -36 31 -3 12 -19 34 -35 49 -16 16 -29 33 -29 40 0 6
-7 8 -16 5 -10 -4 -19 4 -28 26 -8 18 -22 32 -32 33 -11 2 -26 5 -34 9 -23 9
-19 -37 6 -72 42 -59 66 -135 53 -169 l-9 -25 -25 24 c-14 12 -25 27 -25 32 0
9 -105 116 -114 116 -9 0 13 -37 60 -100 23 -31 52 -77 64 -102 12 -26 28 -52
36 -59 8 -6 14 -15 14 -20 0 -13 62 -142 88 -184 14 -22 26 -51 26 -65 1 -15
7 -25 15 -25 10 0 19 -18 25 -49 6 -27 17 -51 25 -54 12 -4 13 6 8 56 -6 52
-4 60 8 56 10 -4 15 0 15 11 0 11 -5 15 -14 12 -24 -9 -38 17 -22 39 14 18 15
18 35 -5 24 -28 26 -39 6 -64 -12 -16 -11 -23 6 -50 10 -18 19 -40 19 -49 0
-10 13 -64 29 -120 16 -57 32 -118 36 -135 6 -31 5 -32 -17 -25 -14 5 -40 38
-67 83 -100 171 -226 342 -353 478 l-32 34 -87 -12 c-48 -7 -121 -11 -162 -10
-41 1 -79 -1 -86 -5 -6 -4 -11 -2 -11 3 0 6 -8 11 -17 11 -10 0 -52 12 -93 25
-86 29 -83 28 -74 13 4 -7 -8 -2 -27 10 -108 68 -269 133 -327 132 -16 -1 -16
-2 1 -14 9 -7 17 -16 17 -20 0 -10 -38 -7 -45 4 -3 6 -16 10 -28 10 -33 0 -9
-14 58 -34 33 -10 62 -21 65 -25 8 -10 70 -41 82 -41 6 0 33 -16 59 -35 27
-19 53 -35 58 -35 6 0 25 -14 43 -31 18 -17 51 -44 74 -60 47 -34 103 -99 129
-148 17 -34 17 -34 -5 -28 -27 7 -24 -21 4 -37 31 -17 69 -60 57 -64 -6 -2
-29 10 -50 27 -21 17 -42 31 -45 31 -9 0 -64 38 -96 66 -68 60 -353 178 -500
209 -19 4 -39 11 -45 15 -5 4 -19 10 -30 12 -16 4 -13 7 14 14 l33 10 -77 69
c-113 102 -207 169 -315 226 -36 19 -77 43 -92 53 -14 9 -37 18 -50 20 -12 1
-30 5 -38 9 -122 52 -123 52 -380 52 -170 0 -256 -4 -280 -13 -62 -21 -185 13
-289 80 -56 37 -77 45 -87 37 -7 -6 -40 -13 -72 -16 l-59 -5 46 -48 c25 -25
55 -51 66 -55 44 -20 -57 -16 -136 5 -45 11 -84 18 -87 15 -3 -3 2 -5 11 -5 9
0 17 -4 17 -10 0 -30 -132 12 -184 59 -15 14 -53 58 -84 96 -67 83 -71 87 -89
70 -15 -16 -17 -35 -3 -35 6 0 10 -6 10 -13 0 -7 13 -31 30 -53 16 -21 30 -44
30 -50 0 -14 66 -74 80 -74 6 0 10 -5 10 -11 0 -7 -12 -9 -35 -5 -22 4 -35 3
-35 -4 0 -18 -26 -11 -63 18 -20 15 -57 40 -83 56 -73 46 -159 202 -184 336
-5 29 -12 55 -15 60 -7 12 -8 288 -1 319 3 13 17 41 31 62 14 21 25 43 25 49
0 5 7 10 16 10 14 0 15 -10 9 -73 -5 -65 -4 -75 14 -91 40 -36 66 17 39 81
-17 43 -19 120 -2 134 8 6 14 17 14 23 0 7 22 32 50 56 27 25 50 51 50 58 0
15 19 49 43 76 25 29 22 49 -5 40 -71 -22 -186 -78 -231 -112 -69 -51 -73 -53
-90 -46 -26 10 106 122 213 181 30 16 69 37 85 46 46 25 97 46 127 51 15 2 35
9 45 15 23 13 25 13 43 -2z m-770 -63 c30 -30 65 -59 78 -64 12 -5 21 -13 20
-17 -5 -16 46 -73 65 -73 17 0 19 -5 14 -35 -3 -19 -15 -47 -26 -62 -12 -14
-21 -38 -21 -54 0 -15 -6 -34 -13 -41 -8 -7 -17 -27 -21 -43 -11 -44 -30 -85
-40 -85 -4 0 -6 -6 -3 -14 3 -8 0 -20 -8 -26 -13 -11 -16 -21 -35 -145 -15
-96 -15 -443 0 -489 12 -37 5 -85 -11 -69 -12 12 -38 168 -49 298 -9 97 -6
216 5 252 2 7 0 15 -5 18 -6 4 -10 -11 -10 -34 0 -22 -4 -42 -9 -45 -5 -3 -7
-25 -4 -48 5 -33 2 -44 -13 -55 -15 -11 -16 -15 -5 -22 7 -5 11 -13 7 -19 -11
-19 -8 -216 4 -281 9 -44 24 -77 47 -108 40 -53 33 -83 -20 -83 -31 0 -77 38
-77 64 0 6 -10 22 -23 36 -35 38 -47 128 -41 307 4 148 15 235 33 258 4 5 14
33 21 60 7 28 17 55 22 61 5 7 15 45 23 85 7 41 19 94 25 119 6 24 9 53 7 62
-3 10 0 21 6 25 7 4 3 9 -9 14 -17 7 -17 8 -1 8 13 1 17 10 17 41 0 25 -5 40
-12 40 -9 0 -8 3 2 10 10 6 14 25 13 67 -2 71 -8 117 -17 132 -18 28 15 6 64
-45z m370 -24 c0 -5 -4 -10 -10 -10 -5 0 -10 5 -10 10 0 6 5 10 10 10 6 0 10
-4 10 -10z m-210 -250 c0 -5 -5 -10 -11 -10 -5 0 -7 5 -4 10 3 6 8 10 11 10 2
0 4 -4 4 -10z m2100 -140 c0 -5 -2 -10 -4 -10 -3 0 -8 5 -11 10 -3 6 -1 10 4
10 6 0 11 -4 11 -10z m-3103 -116 c-3 -3 -12 -4 -19 -1 -8 3 -5 6 6 6 11 1 17
-2 13 -5z m4773 -184 c0 -5 -7 -10 -16 -10 -8 0 -12 5 -9 10 3 6 10 10 16 10
5 0 9 -4 9 -10z m-6007 -217 c-7 -2 -19 -2 -25 0 -7 3 -2 5 12 5 14 0 19 -2
13 -5z m1263 -37 c1 -8 25 -43 53 -79 49 -62 113 -113 130 -102 5 2 16 -4 26
-15 24 -27 73 -41 154 -45 39 -2 74 -6 80 -9 5 -4 13 -28 17 -54 3 -26 10 -51
14 -57 5 -5 11 -32 16 -60 4 -27 13 -64 20 -81 18 -43 4 -54 -70 -54 -73 0
-144 26 -236 87 -91 60 -92 61 -134 127 -48 75 -77 149 -81 208 -2 25 -5 50
-8 55 -2 4 -3 26 -1 48 1 22 3 44 3 49 1 13 14 -2 17 -18z m3409 14 c-3 -5
-12 -10 -18 -10 -7 0 -6 4 3 10 19 12 23 12 15 0z m-4168 -61 c23 -10 49 -19
57 -19 9 0 18 -14 22 -36 6 -34 54 -100 54 -75 0 6 5 11 11 11 7 0 9 -10 5
-26 -6 -21 -4 -25 8 -21 12 5 14 0 9 -24 -5 -25 -2 -31 15 -36 17 -4 19 -9 10
-28 -7 -17 -5 -32 10 -66 30 -68 33 -81 20 -73 -7 5 -9 0 -6 -14 4 -13 2 -19
-6 -16 -12 5 -77 93 -113 152 -12 21 -28 37 -35 37 -7 0 -15 12 -18 27 -3 15
-12 36 -20 45 -9 10 -20 36 -25 58 -10 38 -12 40 -57 47 -26 3 -52 9 -58 13
-6 4 -17 1 -25 -5 -17 -14 -21 -129 -6 -145 5 -6 12 -29 16 -51 5 -36 4 -42
-13 -46 -11 -3 -27 -1 -36 4 -9 5 -79 19 -154 30 -208 30 -321 16 -369 -45
-19 -24 -88 -47 -142 -47 -27 0 -31 4 -31 26 0 56 62 134 167 209 44 33 219
99 234 89 5 -3 9 -1 9 4 0 9 25 13 203 31 49 5 91 12 95 16 12 12 124 -5 169
-26z m306 15 c26 -3 49 -10 52 -14 3 -5 29 -11 58 -15 28 -4 62 -11 74 -16 32
-12 54 -61 52 -118 -1 -28 3 -57 10 -65 7 -9 10 -24 6 -37 -4 -13 -2 -24 5
-29 14 -9 6 -44 -9 -38 -5 2 -38 31 -75 64 -36 34 -86 77 -111 95 -49 37 -54
46 -28 51 13 2 -1 21 -52 71 -41 40 -62 66 -50 63 11 -3 41 -8 68 -12z m-1273
-140 c0 -8 -4 -12 -10 -9 -5 3 -10 10 -10 16 0 5 5 9 10 9 6 0 10 -7 10 -16z
m7098 -19 c-3 -3 -9 2 -12 12 -6 14 -5 15 5 6 7 -7 10 -15 7 -18z m-7168 -31
c0 -8 -5 -12 -10 -9 -6 4 -8 11 -5 16 9 14 15 11 15 -7z m3360 -121 c0 -16
-17 -26 -25 -13 -3 5 -21 10 -38 11 -27 0 -29 2 -12 9 28 11 75 7 75 -7z
m-2047 -167 c4 -10 1 -13 -9 -9 -15 6 -19 23 -5 23 5 0 11 -7 14 -14z m4249
-76 c10 0 18 -4 18 -10 0 -15 -16 -12 -37 8 -10 9 -14 14 -9 10 6 -5 18 -8 28
-8z m-4851 -42 c64 -36 75 -51 30 -42 -21 5 -40 0 -65 -15 -38 -24 -47 -41
-41 -83 18 -142 163 -309 348 -398 26 -13 47 -27 47 -30 0 -4 -22 -10 -50 -14
-36 -5 -58 -2 -80 9 -17 9 -54 19 -81 22 -29 3 -53 12 -56 19 -3 8 -12 14 -20
14 -21 0 -152 87 -160 106 -3 9 -12 13 -22 9 -9 -4 -32 -8 -51 -10 -20 -2 -49
-11 -65 -19 -17 -9 -36 -16 -43 -16 -15 0 -8 -34 12 -60 6 -8 22 -37 36 -63
30 -57 116 -157 135 -157 17 0 38 -36 30 -50 -3 -6 -30 -10 -60 -10 -30 0 -57
-5 -60 -10 -4 -6 -12 -9 -18 -8 -24 5 -55 -21 -50 -41 3 -11 -2 -29 -10 -41
-8 -12 -12 -30 -10 -41 5 -16 11 -18 42 -13 20 3 44 8 54 11 27 7 20 -11 -13
-30 -16 -10 -30 -27 -30 -37 0 -10 -6 -20 -14 -22 -22 -5 23 -94 68 -137 42
-40 45 -60 14 -88 -65 -59 -145 -66 -182 -15 -11 14 -27 57 -36 95 l-16 70
-27 -29 c-28 -30 -29 -48 -2 -20 20 20 26 20 19 2 -3 -8 -12 -17 -20 -20 -8
-3 -14 -11 -14 -19 0 -7 -11 -24 -25 -37 -14 -13 -31 -35 -38 -49 -8 -15 -19
-35 -27 -47 -12 -19 -9 -27 29 -77 24 -33 52 -59 66 -63 30 -7 32 -25 5 -49
-11 -10 -20 -27 -20 -37 0 -24 -26 -34 -45 -18 -9 7 -18 10 -21 7 -9 -9 -96
37 -121 65 -14 15 -23 38 -24 63 -1 22 -8 49 -14 60 -8 12 -11 44 -9 75 3 61
26 190 35 205 4 6 10 24 14 42 7 34 73 108 105 118 11 3 22 15 25 26 4 10 12
19 18 19 7 0 18 14 25 32 10 26 9 35 -1 46 -14 14 -67 7 -67 -8 0 -5 -18 -6
-39 -3 -31 4 -50 0 -85 -21 -24 -14 -49 -26 -55 -26 -10 0 -16 27 -26 116 -5
52 12 115 35 129 6 4 8 11 5 16 -4 5 -1 9 5 9 6 0 13 8 17 18 3 9 15 27 25 38
10 12 20 31 21 43 1 12 6 20 11 18 6 -2 30 20 53 49 23 29 57 61 75 72 18 11
46 34 62 51 17 17 36 31 43 31 7 0 22 9 33 20 16 16 24 18 50 8 36 -12 53 -2
27 16 -19 15 -23 36 -6 36 5 0 7 -5 3 -11 -13 -22 34 11 56 38 22 28 172 190
178 192 2 1 30 -14 63 -31z m2552 16 c18 -9 43 -23 57 -31 14 -8 37 -19 51
-25 14 -6 30 -20 35 -31 5 -11 18 -25 29 -31 11 -6 26 -20 35 -31 26 -36 145
-144 158 -145 13 0 17 -20 5 -20 -110 -7 -115 -6 -179 37 -71 48 -189 162
-199 193 -3 11 -11 20 -16 20 -5 0 -9 11 -9 24 0 14 -4 28 -10 31 -13 8 -13
25 1 25 6 0 25 -7 42 -16z m2422 -34 c3 -5 2 -10 -4 -10 -5 0 -13 5 -16 10 -3
6 -2 10 4 10 5 0 13 -4 16 -10z m1852 -105 c2 -11 8 -49 14 -85 5 -36 15 -87
21 -115 6 -27 11 -101 11 -164 0 -113 0 -115 -27 -135 -15 -12 -51 -42 -80
-68 -29 -27 -55 -48 -57 -48 -2 0 -5 24 -7 53 -2 28 -7 56 -12 61 -6 6 -5 15
2 23 8 10 8 17 0 25 -6 6 -8 24 -5 39 4 22 2 29 -11 29 -18 0 -22 16 -5 22 8
3 8 25 0 78 -9 65 -8 77 8 99 27 39 78 152 91 202 19 75 21 77 37 39 8 -19 17
-44 20 -55z m-3997 27 c8 -3 22 -7 30 -9 8 -1 31 -6 50 -10 19 -4 100 -6 180
-5 145 2 252 -10 258 -28 2 -6 16 -10 30 -10 19 0 23 -3 13 -9 -7 -5 -10 -14
-7 -20 4 -6 2 -11 -3 -11 -6 0 -11 7 -11 15 0 17 -4 18 -28 6 -9 -5 -34 -16
-55 -25 -23 -10 -35 -21 -31 -27 7 -11 -12 -29 -31 -29 -5 0 -3 5 5 10 10 6
11 10 3 10 -17 0 -137 -41 -143 -49 -3 -4 -31 -8 -62 -9 l-56 -3 -62 60 c-34
34 -66 61 -72 61 -5 0 -7 4 -4 9 4 5 3 11 -1 13 -5 2 -26 23 -48 46 l-40 43
35 -12 c19 -6 42 -13 50 -17z m2525 -33 c11 -16 1 -19 -13 -3 -7 8 -8 14 -3
14 5 0 13 -5 16 -11z m-880 -120 c39 -7 75 -16 80 -20 6 -3 53 -19 105 -34 52
-15 102 -32 110 -36 8 -4 42 -17 75 -28 33 -10 90 -31 128 -45 37 -14 67 -22
67 -18 0 4 5 -1 11 -11 7 -12 17 -16 30 -12 10 4 19 2 19 -4 0 -5 26 -21 58
-36 31 -14 74 -35 95 -46 22 -10 45 -19 51 -19 16 0 171 -117 211 -159 19 -21
26 -34 19 -39 -16 -10 31 -81 61 -92 14 -5 25 -16 25 -24 0 -9 9 -20 21 -26
35 -19 59 -44 59 -61 0 -18 87 -99 107 -99 16 0 17 -17 1 -22 -18 -6 -53 14
-82 49 -30 36 -82 53 -65 22 5 -11 14 -19 18 -19 5 0 11 -6 14 -14 4 -10 -3
-13 -24 -11 -16 1 -32 5 -36 8 -10 11 -44 -13 -54 -40 -7 -20 -5 -32 11 -58
11 -18 20 -39 20 -48 0 -8 10 -17 21 -20 17 -5 20 -11 16 -29 -5 -17 1 -32 18
-52 14 -16 22 -33 19 -37 -3 -5 6 -14 20 -21 26 -11 35 -33 16 -40 -10 -3 -4
-26 29 -103 35 -81 51 -126 51 -142 0 -11 4 -23 8 -28 5 -6 15 -44 22 -85 7
-41 17 -83 22 -93 5 -10 11 -31 13 -48 6 -50 26 -98 43 -109 16 -9 16 -9 0
-10 -10 0 -23 9 -30 20 -7 11 -18 20 -25 20 -6 0 -18 8 -25 18 -7 9 -29 26
-48 36 -19 11 -51 32 -71 48 -20 15 -40 28 -45 28 -4 0 -15 6 -23 13 -9 7 -41
24 -71 37 -30 13 -83 36 -118 52 -34 15 -70 28 -80 28 -10 0 -22 4 -27 8 -15
13 -100 43 -134 47 -17 2 -41 9 -53 16 -24 13 -57 20 -100 23 -16 0 -28 5 -28
9 0 5 -17 7 -38 6 -21 -2 -44 1 -51 6 -17 10 -39 14 -173 29 -59 6 -110 15
-114 19 -4 4 -18 0 -30 -8 -21 -13 -23 -13 -18 0 5 13 -16 15 -154 15 -93 0
-163 -4 -167 -10 -3 -5 -19 -7 -35 -3 -19 3 -30 1 -30 -6 0 -6 -9 -11 -20 -11
-37 0 -20 18 60 64 44 26 80 49 80 51 0 10 -66 -8 -76 -21 -6 -8 -14 -11 -17
-8 -8 8 -95 -44 -111 -67 -7 -10 -15 -16 -18 -13 -4 3 -16 -3 -28 -13 -87 -70
-120 -99 -153 -131 -40 -38 -97 -116 -97 -132 0 -5 -14 -19 -31 -31 -28 -20
-32 -20 -47 -6 -13 14 -17 14 -26 2 -7 -8 -34 -15 -69 -17 -33 -2 -61 -7 -64
-11 -3 -4 -11 -3 -19 3 -19 17 -127 25 -150 12 -18 -11 -17 -11 5 -12 41 0 6
-27 -43 -32 -24 -3 -58 -15 -74 -27 -17 -11 -37 -21 -46 -21 -9 0 -16 -4 -16
-10 0 -5 -15 -16 -32 -25 -37 -18 -108 -80 -108 -95 0 -5 -9 -14 -19 -20 -11
-5 -23 -20 -27 -32 -3 -12 -19 -32 -35 -46 -16 -13 -29 -29 -29 -35 0 -7 -10
-23 -23 -37 -19 -23 -27 -25 -62 -19 -22 4 -86 6 -143 5 l-103 -3 -45 44 c-24
25 -44 50 -44 56 0 7 -11 29 -25 50 -14 20 -24 41 -21 46 3 4 -3 17 -12 27
-10 10 -16 27 -14 36 2 12 -10 24 -40 39 -24 12 -50 27 -58 33 -8 7 -46 25
-85 41 -74 31 -115 65 -115 96 0 11 -7 19 -15 19 -8 0 -15 5 -15 10 0 29 -184
169 -222 170 -10 0 -18 3 -18 8 0 4 -21 13 -47 20 -27 7 -66 17 -88 23 -22 6
-60 13 -85 14 -25 2 -63 10 -86 18 -47 18 -414 36 -414 21 0 -5 -41 -11 -92
-12 -51 -2 -96 -6 -102 -9 -5 -4 -28 -8 -50 -9 -22 -2 -46 -6 -55 -9 -8 -3
-37 -8 -64 -11 -50 -6 -159 -49 -165 -65 -2 -5 -12 -9 -23 -9 -22 0 -189 -79
-189 -89 0 -4 -14 -15 -31 -25 -16 -10 -34 -29 -39 -42 -11 -28 -81 -63 -144
-71 l-38 -6 5 39 c10 73 56 238 94 339 29 78 91 203 104 211 5 3 9 13 9 24 0
10 7 20 15 24 8 3 15 10 15 17 0 27 163 197 253 264 36 28 67 56 67 63 0 6 4
12 9 12 12 0 34 58 36 92 0 19 -6 30 -23 37 -13 6 -21 15 -18 20 4 5 1 11 -5
13 -7 2 16 21 51 41 65 39 154 71 230 83 60 9 217 72 224 90 3 8 14 14 25 14
11 0 33 18 50 39 32 40 76 60 94 42 16 -16 38 -14 78 7 21 11 44 15 55 12 21
-8 56 4 93 32 23 17 24 17 70 -22 26 -22 53 -40 59 -40 7 0 12 -4 12 -8 0 -13
54 -40 69 -34 8 2 11 0 8 -5 -7 -11 71 -42 181 -74 52 -15 87 -17 190 -13 70
3 135 5 145 5 9 0 17 4 17 10 0 5 12 9 26 9 14 0 55 14 91 31 35 17 67 28 70
26 2 -3 12 1 21 9 10 8 31 26 48 39 l32 25 51 -26 c28 -15 51 -31 51 -35 0 -5
8 -9 18 -9 10 0 27 -7 40 -15 12 -9 35 -18 52 -20 44 -5 73 -16 93 -33 10 -9
17 -10 17 -4 0 8 14 7 45 -3 25 -7 65 -11 88 -9 105 11 180 26 203 40 13 9 30
14 38 11 17 -7 150 29 154 41 1 4 16 7 33 6 17 -1 42 4 57 12 15 8 33 14 40
14 19 0 115 46 200 97 41 24 81 43 91 43 9 0 21 4 27 10 10 10 19 11 114 11
92 -1 144 6 148 18 2 6 13 11 25 11 12 0 29 5 37 10 8 5 22 8 30 6 8 -3 47
-10 85 -17z m-4210 2 c-7 -13 5 -20 57 -30 24 -5 78 -18 120 -29 43 -10 75
-15 72 -11 -3 5 -1 9 5 9 5 0 13 -5 17 -11 5 -8 31 -9 88 -4 45 4 92 7 106 7
36 1 213 -51 229 -67 33 -32 -78 -62 -259 -69 -131 -5 -212 5 -270 33 -24 11
-48 21 -53 21 -5 0 -30 18 -55 40 -25 23 -51 39 -58 36 -7 -3 -21 12 -33 34
l-20 39 22 4 c12 2 26 5 30 6 5 0 6 -3 2 -8z m5965 -11 c0 -5 -4 -10 -10 -10
-5 0 -10 5 -10 10 0 6 5 10 10 10 6 0 10 -4 10 -10z m-728 -100 c28 -53 24
-59 -22 -35 -26 13 -30 21 -30 55 0 52 19 45 52 -20z m788 -20 c0 -5 -2 -10
-4 -10 -3 0 -8 5 -11 10 -3 6 -1 10 4 10 6 0 11 -4 11 -10z m-185 -10 c3 -5 1
-10 -4 -10 -6 0 -11 5 -11 10 0 6 2 10 4 10 3 0 8 -4 11 -10z m1161 -62 c24
-24 44 -49 44 -55 0 -7 4 -13 9 -13 24 0 121 -219 121 -275 0 -8 5 -15 10 -15
6 0 10 -13 10 -29 0 -16 6 -36 14 -44 12 -11 37 -120 36 -152 -2 -48 -1 -148
2 -235 3 -58 1 -109 -2 -115 -4 -5 -10 -32 -14 -60 -4 -27 -9 -59 -11 -70 -2
-11 -4 -23 -4 -27 -1 -5 -5 -8 -10 -8 -5 0 -8 6 -7 14 0 8 -3 15 -9 15 -5 0
-9 -7 -9 -15 1 -8 -2 -14 -7 -14 -9 0 -15 82 -10 125 5 47 3 144 -4 194 -7 49
-7 54 9 48 12 -5 16 -3 13 5 -2 7 -10 12 -16 10 -9 -2 -9 3 -2 15 6 11 6 24 0
35 -6 10 -5 19 1 23 15 10 12 25 -6 25 -12 0 -14 7 -9 28 4 20 1 33 -10 42
-11 10 -13 16 -4 26 9 10 8 15 -3 19 -10 4 -13 15 -10 31 2 13 0 24 -5 24 -12
0 -33 67 -33 104 0 14 -4 26 -9 26 -5 0 -12 13 -16 30 -4 16 -20 57 -36 90
-16 33 -29 63 -29 65 0 3 -12 24 -26 47 -31 48 -45 93 -37 114 8 22 22 17 69
-28z m-1156 22 c0 -5 -2 -10 -4 -10 -3 0 -8 5 -11 10 -3 6 -1 10 4 10 6 0 11
-4 11 -10z m-6170 -100 c0 -5 -2 -10 -4 -10 -3 0 -8 5 -11 10 -3 6 -1 10 4 10
6 0 11 -4 11 -10z m6230 -125 c0 -8 -2 -15 -4 -15 -2 0 -6 7 -10 15 -3 8 -1
15 4 15 6 0 10 -7 10 -15z m451 -171 c120 -203 142 -257 196 -484 35 -147 18
-571 -24 -587 -8 -3 -19 0 -24 8 -5 8 -9 10 -9 5 0 -5 -9 -1 -19 8 -21 19 -36
7 -27 -22 3 -9 2 -30 -3 -47 -11 -35 -12 -25 -12 67 0 37 -4 70 -8 73 -5 2 -7
20 -5 40 2 29 -1 35 -17 35 -13 0 -19 -7 -20 -22 0 -13 -2 -78 -4 -146 -2
-103 -5 -126 -21 -143 -19 -21 -19 -19 -26 152 -8 179 -13 243 -21 269 -2 8
-15 49 -27 90 -13 41 -26 77 -29 80 -4 3 -17 30 -31 60 -13 30 -34 69 -47 87
-13 17 -23 35 -23 39 0 11 -91 135 -152 206 -69 80 -56 91 31 26 56 -42 82
-71 162 -176 41 -54 62 -62 82 -31 7 12 2 28 -19 63 -16 26 -34 57 -41 69 -7
12 -51 56 -98 97 l-85 74 58 28 c61 29 92 35 92 17 0 -6 22 -41 48 -78 53 -72
157 -243 198 -322 14 -28 28 -48 31 -45 7 6 -26 132 -65 251 -24 73 -49 124
-111 227 l-22 37 28 15 c35 19 43 17 64 -20z m-6577 -321 c-3 -10 -10 -27 -14
-38 -14 -31 -57 -158 -102 -297 -41 -125 -42 -127 -114 -202 -40 -42 -78 -76
-84 -76 -6 0 -9 -4 -5 -10 3 -5 -7 -17 -22 -27 -15 -10 -41 -31 -57 -48 l-28
-30 6 68 c12 120 14 126 65 151 78 39 111 60 111 74 0 6 -9 12 -21 12 -11 0
-18 -4 -15 -8 2 -4 -10 -6 -29 -4 -26 3 -34 0 -37 -14 -3 -15 -5 -15 -15 -2
-10 12 -6 21 22 51 19 20 35 46 35 56 0 10 20 41 45 69 25 27 45 59 45 70 0
11 7 27 15 36 21 21 19 28 -7 21 -16 -5 -4 12 37 51 65 64 104 92 144 104 14
5 27 9 28 9 1 1 0 -7 -3 -16z m5726 -313 c0 -5 -2 -10 -4 -10 -3 0 -8 5 -11
10 -3 6 -1 10 4 10 6 0 11 -4 11 -10z m369 -134 c18 -35 35 -81 38 -103 3 -21
9 -42 13 -48 4 -5 15 -58 25 -116 17 -100 17 -112 1 -188 -9 -45 -16 -90 -16
-101 0 -11 -4 -20 -10 -20 -5 0 -10 14 -10 31 0 17 -4 28 -10 24 -5 -3 -10
-21 -10 -40 0 -41 -12 -51 -32 -27 -16 19 -41 93 -44 132 -1 14 -8 54 -14 90
-7 36 -18 103 -25 150 -14 94 -38 186 -62 240 -9 19 -16 36 -15 38 7 10 20 -1
37 -33 22 -42 71 -59 77 -27 4 18 -10 52 -26 63 -5 4 -6 15 -2 24 6 17 8 16
30 -4 12 -12 37 -50 55 -85z m-1769 -23 c10 9 11 7 5 -10 -6 -23 10 -34 17
-12 2 7 18 13 36 14 26 2 32 -1 32 -16 0 -14 7 -19 26 -19 14 0 44 -8 67 -19
23 -10 51 -22 62 -26 15 -6 1 -12 -55 -21 -41 -7 -77 -13 -79 -13 -2 -1 -1 -8
3 -16 4 -10 -1 -15 -14 -15 -11 0 -20 5 -20 11 0 8 -17 9 -57 4 -72 -9 -89
-15 -72 -26 19 -11 11 -15 -43 -23 -43 -7 -47 -5 -42 11 5 17 5 17 -8 1 -11
-13 -28 -16 -86 -13 -65 3 -72 1 -72 -16 0 -10 -2 -19 -4 -19 -2 0 -11 -3 -20
-6 -28 -11 -17 13 31 67 40 43 116 103 167 130 57 30 73 35 92 28 13 -5 26 -3
34 4z m-3172 -20 c-27 -2 -69 -2 -95 0 -27 2 -5 3 47 3 52 0 74 -1 48 -3z m95
0 c-7 -2 -19 -2 -25 0 -7 3 -2 5 12 5 14 0 19 -2 13 -5z m3237 -2 c0 -5 -11
-8 -25 -8 -14 0 -28 3 -31 8 -3 5 9 9 25 9 17 0 31 -4 31 -9z m-3513 -7 c-3
-3 -12 -4 -19 -1 -8 3 -5 6 6 6 11 1 17 -2 13 -5z m-80 -20 c-3 -3 -12 -4 -19
-1 -8 3 -5 6 6 6 11 1 17 -2 13 -5z m-38 -8 c-2 -2 -20 -6 -39 -10 -25 -4 -31
-3 -20 4 14 9 69 15 59 6z m-96 -33 c-7 -2 -19 -2 -25 0 -7 3 -2 5 12 5 14 0
19 -2 13 -5z m-53 -7 c0 -2 -7 -7 -16 -10 -8 -3 -12 -2 -9 4 6 10 25 14 25 6z
m-103 -62 c-3 -3 -12 -4 -19 -1 -8 3 -5 6 6 6 11 1 17 -2 13 -5z m-60 -10 c-3
-3 -12 -4 -19 -1 -8 3 -5 6 6 6 11 1 17 -2 13 -5z m-837 -9 c0 -9 -42 -47 -47
-42 -6 6 28 47 39 47 5 0 8 -2 8 -5z m1474 -63 c10 -17 -12 -35 -38 -30 -15 3
-29 1 -32 -3 -3 -5 -21 -9 -40 -9 -32 0 -34 -2 -34 -34 l0 -33 -86 -6 c-89 -6
-127 2 -118 27 3 8 25 19 50 26 24 7 47 17 50 21 6 10 -39 3 -113 -18 -29 -8
-57 -11 -63 -8 -6 4 -16 2 -23 -3 -19 -14 -67 -24 -67 -13 0 9 52 28 100 37 8
2 42 10 75 20 33 9 83 20 110 24 70 10 223 12 229 2z m-1551 -27 c-19 -26 -33
-32 -33 -14 0 12 29 38 43 39 4 0 0 -11 -10 -25z m3819 -27 c-6 -6 -15 -8 -19
-4 -4 4 -1 11 7 16 19 12 27 3 12 -12z m-2912 3 c0 -5 -12 -12 -26 -15 -36 -9
-158 -68 -162 -78 -2 -4 -8 -8 -14 -8 -39 0 -115 -108 -123 -175 -4 -34 -5
-36 -12 -32 -5 3 -9 -17 -10 -45 -1 -27 -7 -56 -14 -64 -6 -8 -12 -33 -11 -57
0 -23 -6 -73 -14 -110 -20 -100 -18 -315 7 -492 25 -182 24 -177 43 -245 8
-30 13 -56 11 -58 -7 -7 -45 86 -62 148 -16 62 -15 57 -32 160 -7 41 -15 82
-19 90 -6 16 -9 48 -14 197 -2 51 -6 93 -10 93 -4 0 -5 21 -3 48 3 26 7 76 10
112 13 201 27 277 57 315 4 5 24 30 43 54 20 24 57 55 83 69 26 13 57 30 69
38 12 8 29 14 37 14 8 0 21 6 28 13 7 6 31 14 53 15 22 2 47 8 55 13 20 11 30
11 30 0z m765 -39 c26 -21 26 -21 3 -19 -13 1 -28 7 -34 15 -8 12 -12 11 -23
-2 -13 -15 -16 -15 -34 1 -19 17 -20 17 -14 1 4 -10 5 -18 4 -18 -1 0 -18 4
-36 10 -20 5 -39 6 -45 1 -6 -5 -26 -6 -43 -4 -25 4 -33 10 -33 26 0 19 5 20
114 15 96 -4 119 -9 141 -26z m2598 -7 c62 -5 91 -4 101 4 9 8 16 8 20 2 10
-16 -29 -31 -83 -31 -27 0 -51 -4 -53 -10 -1 -5 -23 -12 -48 -14 -25 -3 -90
-19 -145 -37 -55 -17 -102 -32 -105 -32 -3 -1 -9 -5 -15 -9 -26 -21 -165 -87
-177 -85 -7 2 -10 2 -5 0 15 -9 6 -20 -31 -39 -22 -10 -44 -30 -51 -45 -6 -14
-22 -31 -36 -37 -14 -6 -25 -16 -25 -22 0 -5 -7 -10 -15 -10 -8 0 -19 -9 -25
-20 -14 -25 -36 -26 -50 -1 -7 15 -6 28 8 53 9 18 19 35 22 38 3 3 12 19 20
35 29 59 122 176 148 188 15 6 29 14 32 18 8 10 134 39 171 39 19 0 39 4 45 9
17 17 139 20 297 6z m174 -1 c-3 -3 -12 -4 -19 -1 -8 3 -5 6 6 6 11 1 17 -2
13 -5z m-4325 -46 c-7 -7 -12 -8 -12 -2 0 14 12 26 19 19 2 -3 -1 -11 -7 -17z
m4517 4 c3 0 24 0 46 -1 37 -1 42 -4 50 -33 8 -27 18 -35 50 -44 58 -16 40
-29 -35 -27 -36 1 -103 2 -150 3 -47 1 -93 7 -104 12 -13 7 -16 7 -12 -1 8
-12 4 -14 -17 -5 -19 7 -10 41 11 46 10 2 65 3 125 3 89 0 107 3 105 15 -3 15
-3 15 -198 20 l-125 3 90 11 c50 7 105 8 124 4 19 -3 37 -6 40 -6z m239 -91
c10 -6 9 -10 -7 -14 -21 -5 -36 5 -24 17 8 8 15 7 31 -3z m-3438 -21 c0 -12
-8 -12 -35 0 -18 8 -17 9 8 9 15 1 27 -3 27 -9z m-1725 -20 c3 -5 -1 -10 -9
-10 -9 0 -16 5 -16 10 0 6 4 10 9 10 6 0 13 -4 16 -10z m1245 0 c0 -6 -12 -20
-27 -33 -78 -65 -93 -80 -93 -89 0 -6 -13 -30 -29 -53 -24 -35 -28 -50 -22
-72 8 -27 16 -30 51 -22 8 2 16 -3 16 -11 1 -8 2 -18 3 -22 0 -5 1 -11 2 -15
0 -5 7 -12 15 -16 11 -6 29 6 65 43 28 29 48 55 45 58 -3 3 11 17 32 31 20 14
48 36 62 49 87 82 347 137 493 103 46 -11 53 -17 40 -33 -16 -20 -79 -216 -93
-288 -7 -36 -14 -154 -16 -262 -3 -156 0 -209 13 -255 8 -32 16 -72 18 -88 3
-40 16 -95 25 -115 16 -31 38 -116 39 -154 1 -13 6 -16 17 -12 13 5 14 3 7 -6
-12 -15 -8 -101 5 -125 6 -10 6 -27 1 -43 -10 -26 -10 -26 -76 -18 -36 4 -71
13 -79 19 -7 6 -17 8 -22 5 -6 -3 -15 0 -21 8 -7 8 -27 17 -46 20 -19 4 -35
11 -35 15 0 5 -15 15 -32 22 -18 7 -59 30 -90 51 -31 21 -64 38 -73 38 -8 0
-15 7 -15 15 0 9 -9 15 -25 15 -14 0 -25 5 -25 10 0 6 -5 10 -11 10 -6 0 -26
12 -45 26 -72 56 -44 -11 37 -87 53 -49 107 -85 121 -81 5 1 13 -7 20 -17 6
-10 18 -17 25 -14 7 3 13 0 13 -7 0 -14 40 -49 56 -50 6 0 22 -10 36 -23 35
-33 141 -82 166 -78 8 1 19 -2 25 -7 7 -5 31 -13 55 -17 23 -4 39 -11 36 -16
-3 -6 -13 -8 -22 -5 -10 3 -80 10 -157 16 -77 6 -158 16 -180 22 -22 6 -44 11
-50 12 -23 5 -63 20 -113 42 -29 13 -55 24 -57 24 -13 0 -135 114 -135 126 0
4 -11 21 -23 38 -13 17 -35 59 -49 93 -14 35 -28 60 -31 56 -4 -3 -7 7 -7 23
0 16 -5 45 -10 64 -15 49 -31 120 -35 155 -17 151 -20 216 -19 390 0 224 2
261 16 325 21 104 28 120 51 121 20 0 20 1 4 8 -18 7 -18 8 -2 21 18 15 72 37
113 47 12 3 22 9 22 14 0 5 5 9 10 9 6 0 10 -5 10 -10z m515 0 c-3 -5 -11 -10
-16 -10 -6 0 -7 5 -4 10 3 6 11 10 16 10 6 0 7 -4 4 -10z m425 -40 c-19 -13
-30 -13 -30 0 0 6 10 10 23 10 18 0 19 -2 7 -10z m82 -14 c24 -8 68 -20 98
-27 30 -6 62 -16 70 -20 26 -13 55 -22 64 -20 5 1 12 -2 15 -7 3 -5 35 -24 71
-42 171 -85 188 -110 182 -262 -2 -54 -8 -98 -13 -98 -5 0 -9 8 -9 17 0 9 -83
99 -184 198 -166 164 -193 186 -265 220 -45 22 -81 43 -81 47 0 11 2 10 52 -6z
m2833 -70 c17 0 36 -5 43 -9 7 -5 12 -4 12 2 0 6 5 11 11 11 5 0 7 -4 4 -10
-8 -12 25 -13 44 -1 9 6 23 4 38 -6 13 -9 41 -18 61 -20 20 -2 60 -8 87 -13
28 -6 64 -12 80 -15 71 -11 136 -24 144 -30 5 -3 12 -1 16 5 14 22 36 17 260
-61 66 -22 126 -41 133 -42 6 0 12 -3 12 -7 0 -3 17 -12 38 -19 48 -17 126
-53 132 -61 12 -17 92 -60 100 -55 5 3 16 -7 24 -23 8 -16 30 -39 49 -52 19
-13 42 -36 50 -50 25 -41 68 -80 90 -80 19 0 19 -5 14 -92 -3 -51 -8 -100 -10
-108 -2 -8 -9 -40 -16 -70 l-13 -56 -82 86 c-82 86 -257 243 -293 264 -33 18
-133 100 -133 108 0 5 -4 8 -9 8 -6 0 -31 14 -57 32 -31 21 -49 28 -52 20 -2
-7 -8 -12 -13 -12 -4 0 -6 6 -3 14 3 9 -16 27 -56 51 -81 49 -177 102 -220
121 -80 36 -97 42 -145 54 -27 7 -54 16 -60 20 -9 6 -80 23 -150 35 -46 9 -81
16 -97 21 -9 2 -70 7 -136 9 -66 2 -124 5 -128 6 -24 4 -75 -2 -70 -9 2 -4
-13 -6 -35 -4 -28 3 -40 0 -45 -11 -3 -9 -12 -13 -20 -10 -8 3 -14 1 -14 -5 0
-6 -8 -8 -19 -5 -21 5 -127 -37 -130 -52 -1 -5 -9 -9 -17 -7 -15 3 -128 -69
-185 -118 -19 -16 -40 -34 -46 -40 -7 -6 -13 -18 -13 -27 0 -13 6 -11 28 10
31 30 62 36 62 12 0 -8 -4 -15 -8 -15 -4 0 -8 -10 -9 -21 -1 -12 -13 -34 -26
-48 -34 -38 -77 -98 -77 -109 0 -5 -8 -16 -18 -25 -16 -15 -17 -13 -11 46 12
113 18 145 35 199 24 76 53 136 80 163 15 15 21 30 17 40 -4 13 -1 16 18 14
13 -2 31 1 39 6 8 5 17 10 20 11 32 6 60 18 60 26 0 5 8 7 18 5 9 -3 37 -1 62
3 36 7 370 5 535 -4z m-4165 -51 c0 -8 4 -15 9 -15 19 0 -18 -116 -43 -132 -5
-4 -10 -19 -11 -34 0 -15 -6 -29 -12 -31 -18 -6 -6 79 13 93 12 10 12 13 2 16
-10 4 -9 17 6 61 18 54 36 75 36 42z m4615 -5 c3 -5 -1 -10 -9 -10 -9 0 -16 5
-16 10 0 6 4 10 9 10 6 0 13 -4 16 -10z m0 -150 c3 -5 2 -10 -4 -10 -5 0 -13
5 -16 10 -3 6 -2 10 4 10 5 0 13 -4 16 -10z m-3110 -20 c27 -10 67 -52 97
-102 10 -15 23 -27 29 -26 6 2 19 -19 30 -47 11 -27 23 -59 28 -70 28 -66 33
-86 36 -157 5 -84 10 -102 27 -92 8 5 9 1 4 -12 -4 -10 -9 -35 -11 -54 -2 -19
-7 -51 -10 -70 -3 -19 -9 -58 -13 -85 -4 -28 -11 -56 -15 -63 -5 -6 -3 -12 2
-12 6 0 11 7 11 16 0 8 4 13 9 10 14 -9 21 22 11 49 -6 16 -6 25 0 25 6 0 11
26 12 58 1 43 2 48 6 22 5 -33 5 -34 12 -10 7 23 8 23 9 -8 1 -20 -3 -31 -9
-27 -6 4 -10 -8 -11 -27 -1 -57 -8 -93 -18 -96 -6 -2 -7 -12 -2 -26 6 -14 4
-36 -6 -61 -8 -22 -19 -64 -25 -92 -5 -29 -14 -53 -18 -53 -4 0 -10 -9 -13
-20 -5 -18 -35 -27 -70 -21 -5 1 -25 -8 -45 -19 -71 -38 -129 -58 -156 -53
-15 3 -25 11 -23 17 3 6 10 10 16 9 6 -2 16 -4 22 -5 6 -2 14 3 17 11 4 11 -5
13 -48 7 -30 -4 -62 -12 -72 -17 -16 -9 -19 -7 -16 8 2 9 -2 18 -9 18 -21 0
-101 75 -118 111 -9 19 -20 34 -25 34 -6 0 -10 5 -10 11 0 6 -7 27 -16 47 -30
68 -32 77 -37 122 l-5 45 11 -39 11 -38 53 4 c30 3 56 1 59 -4 3 -4 11 -8 17
-8 7 0 4 5 -5 11 -12 6 -18 22 -18 44 0 19 -4 37 -10 40 -5 3 -10 21 -10 40 0
19 -5 37 -10 40 -6 3 -8 16 -5 28 3 12 7 63 9 112 5 131 21 219 58 315 20 53
113 147 156 158 50 13 76 14 107 2z m2609 1 c17 -1 18 -3 4 -18 -19 -23 -63
-129 -72 -173 -4 -19 -16 -54 -27 -78 -11 -24 -17 -47 -14 -52 4 -6 2 -10 -4
-10 -5 0 -10 -8 -11 -17 -2 -47 -7 -81 -14 -92 -14 -23 -29 -196 -31 -369 -3
-145 -1 -172 11 -168 8 3 14 -1 14 -9 0 -8 -5 -15 -10 -15 -12 0 -8 -37 17
-142 8 -38 19 -68 24 -68 4 0 11 -16 15 -35 3 -19 12 -39 20 -46 8 -6 14 -17
14 -23 0 -18 49 -106 91 -162 21 -28 65 -73 98 -100 95 -78 81 -82 -89 -28
-113 36 -150 50 -281 113 -36 17 -73 31 -81 31 -9 0 -19 7 -22 16 -4 10 -13
13 -26 9 -14 -5 -20 -2 -20 9 0 16 -12 21 -23 10 -7 -8 29 -38 107 -89 75 -49
57 -58 -26 -12 -94 50 -109 61 -104 74 3 8 -1 10 -11 6 -12 -5 -15 -2 -10 9 5
14 -11 29 -35 32 -4 1 -26 22 -50 47 -165 175 -246 320 -264 472 -2 23 -6 53
-9 67 -17 102 -21 157 -23 320 -2 163 -1 183 12 166 12 -15 23 -17 65 -11 28
4 51 11 51 16 0 4 9 17 21 28 12 11 18 24 15 30 -4 6 -1 9 7 5 7 -2 18 4 23
15 14 32 133 129 189 155 180 85 237 96 459 87z m-2200 -38 c31 -138 26 -508
-7 -638 -3 -11 -6 -30 -6 -42 -1 -14 -7 -23 -16 -23 -13 0 -15 9 -10 48 33
267 37 405 20 595 -5 58 -4 87 3 87 6 0 13 -12 16 -27z m1676 -23 c0 -5 -2
-10 -4 -10 -3 0 -8 5 -11 10 -3 6 -1 10 4 10 6 0 11 -4 11 -10z m1057 -122
c18 -7 33 -16 33 -20 0 -4 5 -8 11 -8 6 0 24 -13 40 -30 16 -16 36 -27 43 -24
16 6 27 -8 51 -66 10 -25 27 -54 36 -65 10 -11 18 -23 19 -27 0 -4 2 -13 5
-20 34 -102 61 -271 64 -401 1 -10 6 -15 11 -12 6 4 10 -6 9 -22 0 -25 -1 -26
-9 -8 -7 17 -8 15 -8 -10 1 -62 -5 -135 -12 -135 -4 0 -11 -20 -14 -45 -4 -25
-12 -45 -17 -45 -6 0 -7 -9 -4 -20 4 -11 0 -34 -9 -50 -15 -31 -9 -39 13 -17
11 10 12 7 6 -13 -8 -28 -24 -51 -42 -63 -7 -4 -13 -14 -13 -22 0 -8 -12 -26
-26 -40 -16 -16 -23 -32 -19 -44 4 -13 -4 -26 -27 -44 -18 -14 -42 -34 -54
-45 -11 -11 -40 -32 -65 -47 -24 -15 -50 -35 -57 -44 -10 -13 -30 -16 -95 -16
-84 1 -145 20 -192 60 -20 16 -19 16 8 12 15 -2 30 0 33 5 3 4 9 6 14 3 5 -3
11 -1 15 5 3 5 -2 11 -12 11 -68 4 -152 58 -177 112 -44 95 -67 163 -71 205
-3 26 -1 38 3 27 8 -23 47 -32 68 -15 11 10 14 9 14 -2 0 -11 9 -14 35 -12 19
1 35 -1 35 -6 0 -4 8 -11 17 -14 15 -6 15 -5 1 11 -8 10 -23 46 -33 81 -11 34
-22 62 -27 62 -11 0 -10 -38 1 -42 15 -5 25 -78 11 -78 -7 0 -10 7 -7 15 4 8
2 17 -4 21 -6 3 -8 12 -5 20 3 8 2 14 -3 14 -5 0 -12 21 -16 48 -4 26 -12 50
-18 55 -9 5 -9 9 1 15 8 6 16 53 23 133 6 68 14 165 18 215 11 132 68 281 137
363 63 73 179 108 261 79z m-1157 -8 c0 -5 -4 -10 -10 -10 -5 0 -10 5 -10 10
0 6 5 10 10 10 6 0 10 -4 10 -10z m-504 -52 c2 -23 9 -64 14 -90 5 -26 7 -54
4 -63 -3 -8 -2 -15 2 -15 5 0 10 -13 11 -30 3 -53 5 -64 13 -100 4 -19 13 -69
20 -110 12 -78 19 -110 45 -221 8 -37 13 -74 9 -83 -3 -9 -1 -16 5 -16 6 0 11
-9 11 -21 0 -22 16 -79 56 -198 14 -40 26 -83 27 -95 0 -11 9 -33 19 -48 10
-14 18 -32 18 -40 0 -30 74 -126 192 -250 15 -15 24 -28 20 -29 -4 0 3 -4 16
-9 12 -5 22 -14 22 -20 0 -6 -12 -2 -27 7 -44 28 -63 46 -63 60 0 7 -6 10 -13
7 -8 -3 -28 9 -46 25 -18 17 -36 29 -39 28 -4 -1 -24 11 -44 27 -29 21 -38 36
-38 58 0 24 -4 28 -18 24 -13 -5 -23 6 -41 47 -13 28 -27 61 -32 72 -28 61
-122 484 -140 625 -5 36 -13 74 -18 85 -14 29 -33 158 -38 252 -4 72 -2 82 11
77 13 -5 16 2 16 38 0 41 7 64 17 54 3 -2 7 -24 9 -48z m2728 -118 c-12 -165
-21 -177 -21 -27 0 81 -3 150 -6 154 -4 3 -1 15 6 27 10 19 12 15 19 -34 4
-30 5 -84 2 -120z m1926 158 c0 -4 -4 -8 -10 -8 -5 0 -10 -6 -10 -14 0 -8 -4
-18 -10 -21 -6 -4 -10 6 -10 22 0 22 5 29 20 29 11 0 20 -4 20 -8z m-4180 -28
c0 -5 -4 -10 -10 -10 -5 0 -10 5 -10 10 0 6 5 10 10 10 6 0 10 -4 10 -10z
m-1210 -108 c14 -1 36 -3 50 -4 14 0 88 -5 165 -10 218 -13 245 -15 316 -16
l66 -2 6 -52 c4 -29 9 -66 12 -83 3 -16 7 -55 10 -85 7 -71 9 -83 17 -96 4 -6
8 -50 9 -98 1 -65 5 -86 15 -86 7 0 11 -6 9 -12 -12 -32 59 -376 89 -433 9
-16 16 -36 16 -42 0 -7 4 -13 10 -13 5 0 9 -3 8 -7 -2 -8 23 -64 32 -73 3 -3
12 -18 20 -34 16 -32 119 -138 166 -172 16 -11 49 -31 74 -44 25 -13 56 -30
70 -37 59 -33 207 -100 235 -107 17 -4 44 -13 60 -20 17 -8 57 -22 90 -31 33
-10 69 -21 80 -26 53 -21 292 -60 395 -64 41 -2 151 -6 243 -10 108 -4 172 -3
180 3 7 6 36 8 74 3 33 -4 71 -3 84 1 12 5 45 11 73 13 93 9 159 27 273 77 23
10 44 18 46 18 3 0 32 15 64 34 33 18 81 41 106 51 26 10 47 22 47 27 0 5 5 6
12 2 6 -4 16 -1 22 7 6 8 27 21 46 29 19 7 40 18 45 24 41 44 156 100 199 97
16 -2 33 3 38 11 5 8 6 -6 2 -37 -3 -27 -13 -57 -20 -66 -19 -21 -18 -29 4
-29 14 0 15 -2 2 -10 -11 -7 -12 -12 -4 -20 9 -9 16 -6 27 10 10 15 22 20 32
16 13 -5 16 -2 11 9 -3 9 -2 13 4 10 13 -8 50 13 50 29 0 8 7 19 15 26 9 7 14
18 12 23 -2 6 8 21 21 34 16 17 30 21 47 17 26 -7 58 20 85 72 57 107 276 263
443 315 116 36 242 25 356 -29 29 -15 56 -33 59 -40 3 -8 25 -34 49 -58 23
-24 43 -50 43 -58 0 -8 16 -31 35 -50 19 -20 35 -41 35 -46 0 -6 7 -10 15 -10
15 0 21 -33 16 -88 -1 -12 5 -25 14 -28 20 -8 19 -22 -2 -26 -15 -3 -15 -5 3
-22 12 -12 15 -21 7 -23 -6 -2 -9 -13 -6 -23 3 -11 9 -17 14 -14 13 8 23 -24
12 -39 -5 -6 -11 -43 -12 -82 -7 -158 -9 -192 -15 -235 -7 -48 -23 -104 -37
-132 -5 -10 -9 -24 -9 -32 0 -8 -13 -43 -29 -78 -16 -35 -32 -74 -36 -88 -4
-14 -18 -38 -30 -55 -12 -16 -25 -42 -29 -57 -3 -16 -13 -28 -21 -28 -8 0 -15
-4 -15 -10 0 -5 -21 -20 -47 -32 -65 -32 -165 -88 -183 -103 -27 -22 -83 -45
-110 -45 -15 0 -47 -11 -73 -23 -25 -13 -62 -24 -82 -25 -20 -1 -54 -6 -76
-12 -23 -6 -58 -10 -78 -9 -20 2 -41 0 -46 -3 -16 -9 -264 -1 -325 11 -112 20
-223 51 -231 64 -4 5 -2 24 3 41 5 17 18 63 28 101 28 108 32 119 45 135 7 8
16 26 20 40 4 14 14 34 21 45 34 48 5 82 -33 39 l-24 -28 6 44 c4 25 11 60 17
79 12 39 -7 67 -39 57 -22 -7 -162 -278 -184 -356 -7 -25 -17 -51 -23 -59 -16
-21 -32 -51 -72 -131 -41 -85 -36 -75 -108 -196 -30 -49 -62 -96 -70 -103 -9
-8 -16 -19 -16 -26 0 -7 -10 -20 -23 -28 -13 -8 -57 -48 -98 -89 -47 -46 -106
-91 -159 -121 -154 -86 -175 -98 -214 -124 -30 -19 -40 -22 -47 -12 -10 16
-82 -16 -179 -79 -59 -39 -285 -154 -385 -197 -22 -9 -65 -30 -96 -46 -31 -16
-64 -29 -73 -29 -8 0 -30 -9 -48 -20 -18 -11 -38 -20 -45 -20 -11 0 -69 -24
-165 -68 -20 -9 -34 -21 -31 -25 3 -5 -4 -6 -16 -2 -12 4 -27 2 -34 -3 -7 -5
-40 -19 -75 -30 -68 -23 -67 -23 -76 36 -5 40 -10 47 -26 37 -7 -4 -9 -18 -5
-32 4 -16 2 -22 -5 -18 -10 6 -13 -5 -11 -41 2 -25 -28 -41 -41 -22 -6 10 -11
9 -18 -4 -6 -10 -25 -22 -43 -27 -17 -5 -70 -24 -117 -41 -47 -17 -97 -34
-112 -37 -16 -3 -28 -10 -28 -15 0 -6 -7 -7 -15 -4 -9 3 -23 1 -33 -4 -17 -10
-61 -22 -217 -62 -118 -30 -288 -45 -485 -42 -96 1 -175 2 -175 3 0 1 -43 4
-95 7 -52 2 -126 12 -165 21 -38 8 -89 18 -111 20 l-42 5 2 41 c3 58 -3 77
-22 71 -14 -5 -14 -4 1 6 10 6 14 16 10 23 -4 6 -6 27 -4 45 2 27 -1 33 -15
30 -25 -5 -43 -36 -26 -47 10 -6 10 -10 -2 -21 -9 -7 -13 -16 -10 -21 3 -5 7
-23 9 -40 3 -17 9 -37 16 -45 14 -17 2 -39 -14 -26 -7 5 -27 13 -45 17 -31 6
-123 68 -130 87 -2 4 -8 8 -14 8 -6 0 -36 22 -68 50 -32 27 -63 50 -69 50 -6
0 -11 4 -11 8 0 4 -29 32 -65 62 -36 30 -77 65 -92 78 -14 13 -43 35 -64 49
-22 14 -39 30 -39 34 0 5 -7 9 -16 9 -9 0 -35 18 -58 39 -78 75 -115 103 -127
95 -9 -5 -10 -2 -6 9 3 10 3 17 -2 17 -4 0 -32 22 -62 50 -30 27 -59 48 -66
45 -6 -2 -13 6 -16 17 -3 11 -10 18 -14 15 -5 -3 -18 6 -29 21 -36 50 -122
127 -152 136 -12 4 -22 12 -22 18 0 12 -226 238 -238 238 -4 0 -16 14 -25 30
-10 17 -25 30 -34 30 -9 0 -13 6 -9 15 3 8 2 15 -3 15 -9 0 -71 57 -71 66 0 2
-9 15 -21 27 -74 78 -219 296 -219 329 0 6 -6 19 -14 27 -23 27 -66 173 -77
266 -10 81 -9 138 7 350 5 72 17 489 16 548 -2 56 17 84 19 30 l1 -28 7 26 c8
34 51 90 63 83 5 -3 19 -22 32 -43 53 -83 161 -181 140 -126 -4 8 -12 15 -19
15 -8 0 -17 5 -21 12 -4 7 -3 8 4 4 19 -11 14 9 -6 27 -10 10 -22 14 -27 10
-4 -5 -5 0 -2 10 4 9 2 17 -3 17 -6 0 -10 5 -10 11 0 6 -9 24 -21 40 -11 16
-18 29 -16 29 3 0 40 -36 83 -80 44 -44 84 -78 91 -76 6 3 14 -1 17 -9 6 -17
176 -98 253 -120 32 -10 67 -21 78 -26 22 -9 117 -29 260 -55 117 -21 359 -21
505 0 187 27 391 83 424 116 5 5 28 10 50 10 37 0 47 7 97 58 50 51 111 124
133 160 4 7 16 46 26 85 10 40 27 97 38 127 10 30 25 75 32 100 7 25 16 56 20
70 5 14 12 48 15 75 4 28 11 55 16 61 9 11 20 66 24 120 1 17 6 37 10 44 7 11
10 50 14 168 1 16 5 21 14 15 6 -4 23 -9 37 -11z m3516 -78 c-12 -31 -25 -3
-13 29 11 29 12 30 15 9 2 -13 1 -30 -2 -38z m-8 -71 c-4 -34 -28 -43 -28 -10
0 25 7 37 22 37 5 0 8 -12 6 -27z m-4638 -19 c0 -2 -16 -4 -35 -4 -19 0 -35 4
-35 8 0 4 16 6 35 4 19 -2 35 -6 35 -8z m40 -4 c0 -11 -4 -20 -8 -20 -4 0 -8
9 -8 20 0 11 4 20 8 20 4 0 8 -9 8 -20z m631 -42 l-5 -43 -6 40 c-6 42 -3 58
9 51 3 -3 4 -24 2 -48z m-754 10 c-3 -7 -5 -2 -5 12 0 14 2 19 5 13 2 -7 2
-19 0 -25z m4718 -5 c-5 -10 -9 -27 -10 -38 -1 -11 -5 -27 -8 -35 -3 -8 -8
-33 -12 -55 -3 -22 -7 -44 -9 -50 -2 -5 -6 -23 -10 -40 -22 -88 -52 -174 -70
-202 -32 -50 -47 -42 -26 12 6 15 19 68 30 117 11 50 24 96 30 103 8 9 8 15 0
20 -18 11 -11 23 20 30 32 7 41 25 13 25 -13 0 -14 3 -5 8 7 5 10 22 8 41 -4
38 12 79 34 84 21 5 24 1 15 -20z m-4694 -43 c-6 -51 -7 -53 -12 -20 -4 19 -2
45 4 58 14 30 15 26 8 -38z m96 -12 c-2 -13 -4 -3 -4 22 0 25 2 35 4 23 2 -13
2 -33 0 -45z m4533 11 c0 -22 -4 -38 -9 -35 -7 4 -8 59 -2 74 6 13 11 -6 11
-39z m150 21 c0 -5 -4 -10 -10 -10 -5 0 -10 5 -10 10 0 6 5 10 10 10 6 0 10
-4 10 -10z m-10 -60 c0 -21 -5 -30 -16 -30 -11 0 -14 5 -10 16 3 9 6 22 6 30
0 8 5 14 10 14 6 0 10 -13 10 -30z m-4647 -65 c4 -54 4 -61 -3 -30 -9 40 -13
112 -6 104 2 -2 6 -35 9 -74z m-1678 44 c4 -5 0 -18 -9 -28 -9 -10 -16 -22
-16 -28 0 -9 -40 -26 -46 -20 -2 1 5 18 14 37 22 47 43 62 57 39z m5853 -11
c36 -45 62 -68 76 -68 9 0 14 6 12 13 -1 6 -1 9 1 5 3 -5 11 -8 18 -8 24 0 87
-62 76 -73 -8 -8 -17 -4 -31 11 -11 11 -20 25 -20 31 0 14 -32 23 -43 12 -7
-7 4 -24 33 -52 32 -31 44 -38 51 -28 4 7 11 10 14 7 4 -4 3 -13 -1 -20 -5 -7
-10 -22 -11 -33 -5 -30 -33 -127 -43 -147 -22 -41 -58 -137 -53 -142 3 -2 -21
-39 -53 -81 -33 -42 -65 -87 -72 -100 -7 -13 -27 -38 -45 -57 -61 -64 -88 -99
-82 -108 3 -6 0 -10 -7 -10 -8 0 -30 -12 -49 -26 -31 -23 -131 -74 -146 -74
-3 0 -34 -13 -67 -29 -62 -29 -174 -48 -298 -49 -43 -1 -56 2 -52 12 3 8 20
16 38 19 36 6 138 67 172 104 11 12 25 23 29 23 4 0 46 40 94 89 97 101 111
117 111 128 0 4 11 18 23 30 13 12 38 52 57 90 19 37 48 88 66 113 33 46 78
166 68 181 -3 5 1 9 8 9 9 0 19 23 28 63 14 60 16 76 21 144 2 26 5 31 16 22
10 -9 13 -8 13 5 0 23 27 20 48 -6z m-4291 -20 c-3 -7 -5 -2 -5 12 0 14 2 19
5 13 2 -7 2 -19 0 -25z m4753 -13 c0 -8 -5 -27 -11 -42 -22 -54 -27 -68 -38
-110 -7 -24 -16 -43 -22 -43 -6 0 -8 -4 -4 -9 7 -12 -15 -61 -28 -61 -6 0 -8
-3 -4 -6 14 -15 -70 -124 -95 -124 -8 0 31 83 62 130 9 14 29 57 45 95 15 39
34 77 40 85 7 8 10 21 8 28 -3 6 0 12 7 12 6 0 8 5 5 10 -10 16 5 50 21 50 8
0 14 -7 14 -15z m-260 -10 c0 -8 -4 -15 -10 -15 -5 0 -10 7 -10 15 0 8 5 15
10 15 6 0 10 -7 10 -15z m-4430 -45 c0 -5 -4 -10 -10 -10 -5 0 -10 5 -10 10 0
6 5 10 10 10 6 0 10 -4 10 -10z m740 -66 l-20 -49 6 50 c8 58 13 70 26 57 5
-5 1 -28 -12 -58z m-2415 -13 c3 -5 1 -12 -5 -16 -5 -3 -10 1 -10 9 0 18 6 21
15 7z m4657 -8 c-6 -2 -10 -9 -7 -14 4 -5 -1 -6 -9 -3 -24 9 -19 24 7 23 12 0
16 -3 9 -6z m100 -15 c-5 -18 -7 -19 -10 -6 -2 11 -16 18 -40 21 -34 3 -33 4
10 5 43 2 46 1 40 -20z m-4511 -15 c6 -169 -18 -900 -31 -923 -2 -3 -4 -16 -6
-30 -6 -62 -21 -115 -32 -115 -13 0 -46 58 -97 170 -25 55 -35 98 -54 220 -8
55 -5 191 5 215 4 8 10 33 14 55 13 64 17 81 45 163 15 42 33 84 41 93 8 8 14
23 14 31 0 9 7 21 15 28 9 7 28 35 43 61 28 51 42 61 43 32z m5359 1 c0 -2 -7
-4 -15 -4 -8 0 -15 4 -15 10 0 5 7 7 15 4 8 -4 15 -8 15 -10z m-50 -4 c-19
-13 -30 -13 -30 0 0 6 10 10 23 10 18 0 19 -2 7 -10z m-903 -97 c-2 -21 -4 -6
-4 32 0 39 2 55 4 38 2 -18 2 -50 0 -70z m984 69 c-5 -9 -18 -37 -30 -62 -11
-25 -21 -37 -21 -27 0 10 -7 20 -15 23 -8 4 -15 10 -15 15 0 5 7 9 15 9 8 0
15 -5 15 -11 0 -21 28 18 35 49 3 18 11 30 16 27 5 -4 5 -13 0 -23z m-884 -4
c-3 -8 -6 -5 -6 6 -1 11 2 17 5 13 3 -3 4 -12 1 -19z m1850 -30 c-3 -8 -6 -5
-6 6 -1 11 2 17 5 13 3 -3 4 -12 1 -19z m-1067 -65 c11 3 27 -1 36 -8 26 -18
-1 -53 -38 -49 -18 2 -28 -3 -31 -14 -3 -9 -3 3 -1 27 2 24 5 62 6 85 l1 41 4
-44 c4 -36 7 -42 23 -38z m1060 -14 c0 -11 -4 -17 -10 -14 -5 3 -10 13 -10 21
0 8 5 14 10 14 6 0 10 -9 10 -21z m-1934 -30 c1 -25 -1 -28 -8 -15 -5 10 -7
24 -4 32 8 21 11 17 12 -17z m819 -79 c-9 -41 -17 -33 -9 9 4 17 9 30 11 27 3
-2 2 -19 -2 -36z m-805 15 c0 -8 -4 -15 -10 -15 -5 0 -10 7 -10 15 0 8 5 15
10 15 6 0 10 -7 10 -15z m849 -7 c-9 -16 -14 -19 -17 -9 -2 7 2 17 9 22 20 13
21 11 8 -13z m567 -26 c-18 -16 -18 -16 -6 6 6 13 14 21 18 18 3 -4 -2 -14
-12 -24z m451 -119 c-3 -10 -5 -4 -5 12 0 17 2 24 5 18 2 -7 2 -21 0 -30z
m-10 -65 c-3 -7 -5 -2 -5 12 0 14 2 19 5 13 2 -7 2 -19 0 -25z m1413 -31 c0
-5 -4 -5 -10 -2 -5 3 -10 14 -10 23 0 15 2 15 10 2 5 -8 10 -19 10 -23z
m-2060 13 c0 -5 -4 -10 -10 -10 -5 0 -10 5 -10 10 0 6 5 10 10 10 6 0 10 -4
10 -10z m677 -122 c-3 -8 -6 -5 -6 6 -1 11 2 17 5 13 3 -3 4 -12 1 -19z m-80
-50 c-2 -13 -4 -5 -4 17 -1 22 1 32 4 23 2 -10 2 -28 0 -40z m50 -15 c-3 -10
-5 -4 -5 12 0 17 2 24 5 18 2 -7 2 -21 0 -30z m-60 -50 c-3 -10 -5 -4 -5 12 0
17 2 24 5 18 2 -7 2 -21 0 -30z m-2020 11 c-3 -3 -12 -4 -19 -1 -8 3 -5 6 6 6
11 1 17 -2 13 -5z m434 -81 c13 -16 12 -17 -3 -4 -17 13 -22 21 -14 21 2 0 10
-8 17 -17z m1556 -45 c-3 -7 -5 -2 -5 12 0 14 2 19 5 13 2 -7 2 -19 0 -25z
m1333 -739 c0 -5 -7 -9 -15 -9 -8 0 -15 -4 -15 -10 0 -5 -7 -10 -15 -10 -19 0
-19 9 1 31 15 17 44 16 44 -2z m-1690 -253 c0 -3 -4 -8 -10 -11 -5 -3 -10 -1
-10 4 0 6 5 11 10 11 6 0 10 -2 10 -4z m-65 -473 c-2 -21 -4 -41 -4 -45 -1 -5
-5 -8 -9 -8 -10 0 -10 46 0 55 4 4 4 13 1 21 -3 8 0 14 5 14 7 0 9 -15 7 -37z
m11 -72 c11 9 14 8 14 -6 0 -19 -32 -17 -36 3 -1 7 0 8 3 2 3 -8 9 -7 19 1z
m54 -505 c0 -2 -8 -10 -17 -17 -16 -13 -17 -12 -4 4 13 16 21 21 21 13z m-485
-426 c3 -5 1 -10 -4 -10 -6 0 -11 5 -11 10 0 6 2 10 4 10 3 0 8 -4 11 -10z
m-2080 -630 c3 -5 1 -10 -4 -10 -6 0 -11 5 -11 10 0 6 2 10 4 10 3 0 8 -4 11
-10z m-27 -30 c1 -16 -2 -30 -8 -30 -5 0 -10 -20 -10 -45 0 -34 -4 -45 -16
-45 -10 0 -12 4 -7 13 8 12 14 56 15 110 1 37 23 35 26 -3z m125 -31 c-20 -21
-53 -17 -53 6 0 15 63 35 69 22 2 -5 -5 -18 -16 -28z m-257 2 c-3 -5 3 -11 14
-14 26 -7 16 -33 -15 -41 -27 -7 -40 -33 -24 -52 9 -11 8 -14 -5 -14 -9 0 -16
-8 -16 -21 0 -11 -4 -17 -10 -14 -6 4 -8 15 -5 26 4 10 8 40 11 65 2 26 9 53
15 60 13 15 44 19 35 5z m304 -61 c0 -5 -4 -10 -10 -10 -5 0 -10 5 -10 10 0 6
5 10 10 10 6 0 10 -4 10 -10z m-380 -40 c0 -5 -4 -10 -10 -10 -5 0 -10 5 -10
10 0 6 5 10 10 10 6 0 10 -4 10 -10z m170 -30 c0 -5 -4 -10 -10 -10 -5 0 -10
5 -10 10 0 6 5 10 10 10 6 0 10 -4 10 -10z m-373 -34 c-3 -7 0 -19 6 -26 10
-10 6 -11 -18 -5 -40 9 -42 13 -19 30 24 18 38 19 31 1z m148 -16 c6 -10 -22
-60 -34 -60 -15 1 -35 20 -28 27 5 4 12 2 16 -5 11 -18 33 10 25 32 -7 17 11
23 21 6z m70 -48 c-6 -16 -7 -16 -17 2 -8 14 -7 21 3 27 17 10 24 -4 14 -29z
m-115 -33 c0 -14 -17 -10 -23 5 -4 10 -1 13 9 9 7 -3 14 -9 14 -14z"/>
<path d="M4271 9070 c-2 -105 70 -376 130 -489 32 -58 100 -128 144 -147 19
-8 35 -19 35 -26 0 -6 3 -9 6 -5 3 3 23 -5 44 -18 41 -26 91 -25 69 1 -7 9 -7
14 -1 14 5 0 12 8 16 18 3 9 9 22 12 29 3 7 -17 23 -51 39 -93 46 -197 165
-267 305 -31 63 -64 136 -73 164 -9 27 -21 55 -26 61 -5 7 -16 31 -23 55 l-14
44 -1 -45z"/>
<path d="M6304 8216 c-18 -14 -16 -17 41 -70 101 -92 199 -156 308 -199 102
-41 108 -33 21 29 -73 51 -104 88 -104 120 0 19 40 4 95 -36 28 -20 75 -48
105 -62 111 -52 324 -99 304 -67 -10 16 -139 98 -208 132 -34 16 -73 36 -87
43 -35 18 -174 37 -217 30 -24 -4 -44 2 -75 20 -48 28 -144 74 -155 74 -5 0
-17 -6 -28 -14z"/>
<path d="M6330 7920 c0 -5 5 -10 10 -10 6 0 10 5 10 10 0 6 -4 10 -10 10 -5 0
-10 -4 -10 -10z"/>
<path d="M6360 7899 c0 -5 5 -7 10 -4 6 3 10 8 10 11 0 2 -4 4 -10 4 -5 0 -10
-5 -10 -11z"/>
<path d="M3490 8894 c0 -8 5 -12 10 -9 6 3 10 10 10 16 0 5 -4 9 -10 9 -5 0
-10 -7 -10 -16z"/>
<path d="M1298 7518 c-39 -31 -50 -58 -24 -58 8 0 22 10 30 22 12 16 18 19 29
10 16 -14 27 -6 27 18 0 37 -23 39 -62 8z"/>
<path d="M1284 6948 c-13 -38 -11 -58 3 -58 8 0 11 4 8 10 -3 5 1 20 10 33 14
22 12 37 -6 37 -4 0 -11 -10 -15 -22z"/>
<path d="M1187 6904 c-18 -19 -32 -43 -33 -52 -1 -9 -4 -28 -9 -41 -6 -19 -4
-23 8 -18 9 3 18 1 20 -6 7 -19 47 23 47 48 0 12 7 41 15 64 13 37 12 41 -1
41 -9 0 -30 -16 -47 -36z"/>
<path d="M5945 7540 c-6 -9 24 -17 99 -25 27 -3 52 -8 57 -11 5 -3 9 -1 9 4 0
17 -155 48 -165 32z"/>
<path d="M5975 6360 c-3 -5 7 -8 25 -7 16 1 30 5 30 10 0 11 -48 9 -55 -3z"/>
<path d="M3890 5991 c0 -11 51 -21 64 -13 5 3 1 9 -10 13 -27 11 -54 11 -54 0z"/>
<path d="M5173 5963 c12 -11 79 -15 72 -3 -3 5 -22 10 -42 10 -20 0 -33 -3
-30 -7z"/>
<path d="M5270 5949 c0 -4 16 -9 35 -11 19 -2 35 0 35 4 0 4 -3 8 -7 9 -41 4
-63 4 -63 -2z"/>
<path d="M4052 5863 c3 -13 13 -18 36 -17 18 1 32 -2 32 -7 0 -5 9 -9 20 -9
11 0 20 4 20 10 0 15 -40 32 -66 27 -13 -2 -24 0 -24 4 0 5 -5 9 -11 9 -6 0
-9 -8 -7 -17z"/>
<path d="M8990 7070 c0 -5 5 -10 10 -10 6 0 10 5 10 10 0 6 -4 10 -10 10 -5 0
-10 -4 -10 -10z"/>
<path d="M9080 6380 c0 -5 5 -10 10 -10 6 0 10 5 10 10 0 6 -4 10 -10 10 -5 0
-10 -4 -10 -10z"/>
<path d="M8275 6109 c-12 -19 5 -23 22 -6 16 16 16 17 1 17 -9 0 -20 -5 -23
-11z"/>
<path d="M2780 4323 c0 -17 6 -23 21 -23 11 0 19 5 17 11 -2 6 -7 10 -12 9 -5
-1 -13 4 -17 12 -6 9 -9 7 -9 -9z"/>
<path d="M2730 4320 c0 -5 5 -10 11 -10 5 0 7 5 4 10 -3 6 -8 10 -11 10 -2 0
-4 -4 -4 -10z"/>
<path d="M7070 5261 c0 -14 26 -32 49 -34 12 -1 35 -14 53 -30 18 -15 50 -37
71 -48 20 -11 37 -23 37 -27 0 -4 25 -20 55 -36 30 -16 55 -32 55 -37 0 -5 5
-9 11 -9 6 0 25 -11 41 -25 41 -35 47 -25 12 19 -20 25 -34 34 -46 30 -10 -3
-18 -1 -18 5 0 6 5 11 12 11 6 0 -15 20 -48 45 -32 25 -66 51 -74 58 -38 30
-75 49 -133 67 -71 22 -77 23 -77 11z"/>
<path d="M1920 5470 c0 -5 5 -10 10 -10 6 0 10 5 10 10 0 6 -4 10 -10 10 -5 0
-10 -4 -10 -10z"/>
<path d="M1910 5419 c0 -5 5 -7 10 -4 6 3 10 8 10 11 0 2 -4 4 -10 4 -5 0 -10
-5 -10 -11z"/>
<path d="M6171 4353 c2 -70 6 -63 11 20 2 26 0 47 -4 47 -5 0 -7 -30 -7 -67z"/>
<path d="M6820 4155 c-7 -9 -8 -15 -2 -15 5 0 12 7 16 15 3 8 4 15 2 15 -2 0
-9 -7 -16 -15z"/>
<path d="M6260 4103 c0 -6 8 -17 18 -24 16 -13 16 -13 2 6 -8 11 -16 22 -17
24 -2 2 -3 0 -3 -6z"/>
<path d="M8820 3819 c-77 -20 -111 -34 -267 -111 -89 -43 -173 -90 -187 -103
-14 -13 -35 -26 -46 -30 -11 -3 -20 -11 -20 -16 0 -5 -4 -9 -10 -9 -10 0 -53
-28 -113 -74 -22 -17 -58 -56 -80 -89 -23 -33 -57 -80 -74 -105 -32 -46 -32
-46 -13 -64 26 -24 25 -30 -3 -23 -28 7 -42 -7 -51 -52 -6 -24 -3 -34 12 -45
15 -10 19 -22 16 -47 -4 -35 15 -60 45 -61 8 0 20 -8 27 -17 10 -15 15 -16 25
-5 7 6 19 12 26 12 7 0 31 20 54 45 23 25 48 45 55 45 8 0 14 4 14 9 0 5 10 7
22 3 13 -3 19 -1 15 5 -4 7 12 11 43 12 48 1 51 -1 68 -36 9 -21 35 -49 56
-64 48 -32 51 -54 15 -108 -16 -22 -24 -43 -19 -46 6 -4 10 -14 10 -25 0 -11
13 -23 38 -33 32 -13 41 -13 72 -1 19 8 39 22 44 31 5 9 27 36 49 60 42 46 48
55 116 188 24 47 41 88 37 92 -3 3 -1 11 4 18 5 7 17 48 25 92 20 105 14 239
-14 311 -12 29 -21 56 -21 61 0 4 19 8 43 7 23 0 69 5 102 12 33 8 70 16 83
18 l23 5 -21 29 c-11 16 -31 32 -43 36 -12 4 -25 11 -28 15 -3 5 -25 10 -49
12 -24 1 -45 8 -48 15 -2 7 2 11 9 10 7 -2 15 5 17 15 4 19 -5 20 -58 6z"/>
<path d="M2184 3704 c0 -9 -5 -19 -13 -22 -9 -3 -12 0 -8 10 8 22 -52 -11
-106 -56 -23 -20 -64 -56 -90 -79 -42 -36 -77 -82 -77 -102 0 -10 38 14 77 50
20 18 40 32 44 30 3 -3 15 5 25 16 10 12 32 28 47 36 20 10 27 20 24 33 -3 12
0 17 8 14 15 -6 85 54 85 73 0 7 -4 13 -9 13 -5 0 -8 -7 -7 -16z"/>
<path d="M4020 3684 c-104 -27 -275 -151 -255 -184 8 -13 35 -13 35 0 0 6 8
14 18 17 9 4 35 19 57 33 22 15 56 36 75 46 19 10 41 27 48 37 7 9 19 17 25
17 12 0 52 39 45 44 -2 1 -23 -3 -48 -10z"/>
<path d="M4095 3612 c-22 -9 -42 -19 -45 -23 -3 -3 -14 -9 -25 -13 -31 -9 -83
-55 -64 -56 38 0 189 82 189 104 0 8 -9 7 -55 -12z"/>
<path d="M2205 3590 c-10 -11 -23 -20 -30 -20 -16 0 -57 -45 -48 -53 3 -4 10
-7 14 -7 9 0 52 42 81 78 22 28 7 29 -17 2z"/>
<path d="M2081 3497 c-30 -33 -26 -41 9 -20 31 18 36 28 21 37 -4 3 -18 -5
-30 -17z"/>
<path d="M4178 3513 c-10 -2 -18 -9 -18 -14 0 -14 26 -11 40 6 13 15 9 16 -22
8z"/>
<path d="M3660 3412 c-14 -7 -23 -52 -11 -52 3 0 12 -13 19 -28 6 -15 36 -58
66 -94 45 -54 65 -70 111 -87 31 -12 60 -21 65 -21 34 0 -30 95 -147 218 -69
72 -75 76 -103 64z"/>
<path d="M6435 3295 c-22 -14 -55 -32 -73 -40 -18 -9 -38 -27 -44 -40 -11 -26
-28 -34 -28 -14 0 6 -15 -2 -34 -19 -19 -16 -48 -38 -65 -48 -17 -10 -31 -26
-31 -36 0 -11 -7 -18 -18 -18 -10 0 -29 -11 -42 -25 -13 -14 -21 -25 -18 -25
14 0 106 51 118 65 7 8 17 15 22 15 5 0 21 8 36 19 15 10 67 44 115 76 49 31
86 60 83 63 -3 3 4 10 16 16 25 13 36 36 16 36 -7 -1 -31 -12 -53 -25z m-75
-75 c0 -5 -4 -10 -10 -10 -5 0 -10 5 -10 10 0 6 5 10 10 10 6 0 10 -4 10 -10z"/>
<path d="M6898 3274 c-16 -8 -28 -19 -28 -24 0 -6 -7 -10 -15 -10 -16 0 -54
-24 -145 -90 -30 -23 -66 -49 -80 -58 -38 -26 -62 -53 -55 -60 4 -4 12 0 18 8
7 8 28 23 47 32 19 10 67 38 105 63 39 25 77 48 85 52 34 14 120 85 115 94 -8
12 -15 11 -47 -7z"/>
<path d="M6429 3112 c-58 -28 -166 -118 -155 -129 8 -8 66 18 115 52 23 16 50
35 59 40 19 12 41 37 42 48 0 11 -22 8 -61 -11z"/>
<path d="M4543 2905 c-8 -22 4 -89 17 -93 5 -2 8 -8 5 -12 -3 -5 3 -8 14 -7
11 0 18 4 15 8 -2 4 1 11 7 15 9 5 7 11 -6 20 -10 7 -15 19 -13 26 7 17 -9 58
-22 58 -6 0 -13 -7 -17 -15z"/>
<path d="M5175 2880 c3 -5 8 -10 11 -10 2 0 4 5 4 10 0 6 -5 10 -11 10 -5 0
-7 -4 -4 -10z"/>
<path d="M4465 2859 c-15 -47 16 -119 52 -119 17 0 11 43 -13 88 -8 15 -14 33
-14 40 0 20 -18 14 -25 -9z"/>
<path d="M3406 2832 c-21 -41 -27 -90 -11 -96 21 -8 32 14 37 72 5 58 -4 66
-26 24z"/>
<path d="M4640 2849 c0 -5 5 -7 10 -4 6 3 10 8 10 11 0 2 -4 4 -10 4 -5 0 -10
-5 -10 -11z"/>
<path d="M5186 2823 c10 -48 34 -93 49 -93 22 0 18 35 -7 80 -27 47 -52 54
-42 13z"/>
<path d="M3157 2833 c-11 -10 -8 -63 2 -63 12 0 41 40 41 57 0 14 -32 18 -43
6z"/>
<path d="M3506 2812 c-16 -19 -16 -20 4 -25 23 -6 39 18 23 34 -6 6 -16 3 -27
-9z"/>
<path d="M4646 2812 c-3 -6 -1 -14 5 -17 6 -4 14 -17 19 -29 9 -21 9 -21 9 0
1 26 -23 61 -33 46z"/>
<path d="M5064 2753 c7 -72 19 -95 42 -86 11 4 13 15 8 42 -4 20 -9 41 -13 46
-3 6 -6 15 -6 20 -2 20 -17 45 -27 45 -7 0 -8 -23 -4 -67z"/>
<path d="M3574 2795 c-7 -16 2 -35 17 -35 5 0 9 7 9 15 0 8 -5 15 -11 15 -5 0
-7 5 -4 10 3 6 4 10 0 10 -3 0 -8 -7 -11 -15z"/>
<path d="M4810 2787 c0 -27 28 -70 40 -62 5 3 7 11 5 18 -2 7 -6 24 -9 40 -8
33 -36 37 -36 4z"/>
<path d="M5667 2531 c-32 -17 -66 -27 -77 -24 -11 3 -30 -1 -43 -10 -12 -8
-38 -18 -56 -22 -19 -4 -54 -18 -78 -31 -33 -17 -58 -22 -99 -21 -39 1 -57 -2
-64 -13 -7 -11 -10 -12 -10 -2 0 11 -13 12 -62 7 -35 -4 -68 -11 -74 -16 -5
-4 -20 -6 -32 -2 -12 3 -28 1 -35 -4 -6 -5 -30 -9 -52 -7 -22 1 -44 -1 -50 -4
-5 -3 -35 -7 -65 -9 -82 -4 -190 -24 -190 -34 0 -5 12 -9 26 -9 14 0 35 -5 47
-12 12 -6 63 -12 113 -13 50 -2 102 -8 114 -15 16 -9 46 -11 94 -6 39 4 97 9
129 11 32 3 66 9 76 14 9 5 47 12 84 15 68 6 192 43 258 76 50 26 130 111 127
134 -4 29 -19 29 -81 -3z"/>
<path d="M3347 2422 c-53 -11 29 -78 130 -106 47 -13 83 -15 156 -11 108 7
212 34 212 55 0 11 -27 15 -130 17 -71 1 -150 5 -175 8 -25 3 -59 7 -75 9 -17
2 -46 10 -65 18 -19 8 -43 12 -53 10z"/>
<path d="M5816 1971 c-3 -4 1 -42 8 -82 14 -73 12 -123 -6 -145 -6 -8 2 -15
24 -23 28 -10 35 -9 45 6 12 15 19 64 13 88 -1 6 -3 17 -4 25 -1 8 -8 29 -16
45 -7 17 -12 38 -12 48 0 9 -6 17 -14 17 -8 0 -14 7 -14 15 0 16 -16 20 -24 6z"/>
<path d="M3322 1758 c-7 -7 -12 -20 -12 -29 0 -10 -5 -21 -11 -25 -16 -9 -5
-109 16 -140 8 -13 22 -24 31 -24 12 0 13 10 8 53 -8 72 -8 66 0 125 6 41 5
52 -6 52 -8 0 -19 -5 -26 -12z"/>
<path d="M5430 1744 c0 -8 5 -12 10 -9 6 3 10 10 10 16 0 5 -4 9 -10 9 -5 0
-10 -7 -10 -16z"/>
<path d="M5706 1708 c-3 -13 -7 -46 -9 -75 -4 -53 6 -70 32 -53 14 8 17 95 6
130 -8 27 -24 25 -29 -2z"/>
<path d="M3420 1600 c0 -45 4 -62 15 -66 8 -4 15 -12 15 -20 0 -8 4 -14 9 -14
11 0 2 118 -11 143 -17 33 -28 17 -28 -43z"/>
<path d="M5630 1620 c-2 -14 -4 -32 -5 -40 0 -8 -4 -20 -8 -27 -4 -6 -3 -14 2
-17 17 -11 27 19 20 64 -4 31 -7 37 -9 20z"/>
<path d="M5620 1510 c0 -5 5 -10 10 -10 6 0 10 5 10 10 0 6 -4 10 -10 10 -5 0
-10 -4 -10 -10z"/>
<path d="M3549 1408 c-1 -5 -2 -12 -3 -17 0 -5 -4 -13 -8 -17 -12 -11 -10 -52
3 -59 6 -4 8 -13 5 -20 -2 -7 2 -21 9 -32 35 -45 43 60 9 125 -7 15 -14 24
-15 20z"/>
<path d="M6923 4312 l-23 -17 28 0 c23 0 28 4 24 18 -2 9 -5 17 -6 17 0 0 -11
-8 -23 -18z"/>
<path d="M3560 9760 c0 -5 5 -10 10 -10 6 0 10 5 10 10 0 6 -4 10 -10 10 -5 0
-10 -4 -10 -10z"/>
<path d="M3590 9741 c0 -5 7 -12 16 -15 24 -9 28 -7 14 9 -14 17 -30 20 -30 6z"/>
<path d="M7280 9119 c0 -7 3 -10 6 -6 4 3 13 0 21 -8 16 -16 43 -20 43 -6 0 5
-8 11 -17 14 -10 2 -26 8 -35 12 -12 5 -18 3 -18 -6z"/>
<path d="M7370 9082 c0 -4 9 -13 20 -20 11 -7 20 -9 20 -4 0 4 -9 13 -20 20
-11 7 -20 9 -20 4z"/>
<path d="M7429 9039 c-11 -7 -11 -9 -1 -9 7 0 27 -13 44 -29 17 -16 37 -27 44
-24 6 2 20 -9 30 -26 10 -17 24 -31 31 -31 7 0 13 -4 13 -8 0 -14 96 -112 109
-112 7 0 10 -4 7 -8 -3 -5 8 -22 24 -37 19 -18 30 -23 30 -15 0 12 2 12 13 1
9 -11 9 -14 0 -18 -9 -3 2 -24 31 -61 23 -31 55 -76 70 -100 19 -31 32 -42 43
-38 13 5 13 4 4 -7 -9 -11 -8 -17 2 -26 8 -6 17 -8 21 -4 4 4 4 -1 0 -11 -5
-12 -2 -22 9 -28 10 -5 17 -15 17 -22 0 -6 6 -24 13 -39 13 -28 32 -35 40 -14
5 15 -20 67 -34 67 -6 0 -7 5 -4 10 9 14 -64 121 -86 127 -10 3 -15 11 -13 18
3 7 0 16 -5 20 -6 3 -8 11 -5 17 5 8 1 9 -10 5 -10 -4 -15 -3 -11 3 3 5 -7 22
-22 36 -15 15 -27 30 -26 35 2 4 -27 39 -63 78 -46 49 -70 68 -81 64 -12 -5
-15 -2 -10 10 4 10 0 18 -12 22 -10 3 -23 16 -30 28 -7 13 -42 43 -78 67 -36
25 -71 50 -78 57 -7 7 -17 8 -26 2z"/>
<path d="M648 7389 c-10 -5 -18 -17 -18 -24 0 -13 -5 -16 -25 -15 -5 1 -75
-63 -146 -133 -31 -31 -37 -58 -16 -76 11 -8 24 4 60 60 26 39 45 75 42 80 -4
5 1 9 9 9 9 0 16 7 16 15 0 14 12 20 34 16 13 -3 36 20 52 51 16 31 16 32 -8
17z"/>
<path d="M9580 7073 c0 -14 19 -38 25 -32 8 8 -5 39 -16 39 -5 0 -9 -3 -9 -7z"/>
<path d="M9610 7010 c0 -5 7 -10 15 -10 9 0 15 -9 15 -22 1 -13 7 -34 15 -48
l14 -25 1 28 c0 34 -29 87 -47 87 -7 0 -13 -4 -13 -10z"/>
</g>
</svg>
